<?xml version="1.0" encoding="UTF-8"?>
<svg viewBox="0 0 500 500" xmlns="http://www.w3.org/2000/svg">
 <defs>
  <linearGradient id="a" x1=".61487" x2=".25" y1=".53907" y2=".32031" spreadMethod="reflect">
   <stop stop-color="#de9500" offset="0"/>
   <stop stop-color="#ffff0f" offset="1"/>
  </linearGradient>
 </defs>
 <path transform="translate(-31.646 -9.4937)" d="m98.359 20.924c-11.641 149.07 35.262 212.69-1.6959 451.94 0 0 333.23 3.392 332.39 3.392 43.456-250-25.204-331.33 2.657-396.83-53.798-0.7344-67.099-59.354-67.099-59.354l-266.25 0.8479z" fill="#fff" fill-rule="evenodd" stroke="#000" stroke-linejoin="round" stroke-width="10"/>
 <path transform="translate(-36.733 -11.19)" d="m369.7 22.62-0.849 59.355h68.681c3.392-5.0876-64.441-57.659-67.832-59.355z" fill="#eeebff" fill-rule="evenodd" stroke="#000" stroke-linejoin="round" stroke-width="10"/>
 <path transform="matrix(.74118 0 0 .71897 165.01 93.073)" d="m99.879 380.68-23.865 101.65 99.727-70.71s-8.687-60.104-75.862-30.936z" fill="#cca89d" fill-rule="evenodd" stroke="#000" stroke-linejoin="round" stroke-width="13.699"/>
 <path transform="matrix(.74118 0 0 .71897 165.01 93.073)" d="m100.76 380.68 224.51-318.2s21.213-26.516 45.078-11.49c7.072 1.7678 5.304 1e-4 19.446 10.607 3.535 2.6517 5.303 23.865 5.303 23.865s-220.97 326.15-220.97 327.04-3.536-19.446-22.981-30.053c-17.678-10.606-49.497-0.883-50.381-1.767z" fill="#c96400" fill-rule="evenodd" stroke="#000" stroke-linejoin="round" stroke-width="13.699"/>
 <path transform="matrix(.74118 0 0 .71897 165.01 93.073)" d="m75.13 483.21 7.955-31.82c0-0.884 10.607-0.884 14.142 3.536 3.5358 0.884 4.4198 7.955 4.4198 7.955l-26.517 20.329z" fill-rule="evenodd" stroke="#000" stroke-linejoin="round" stroke-width="17.123"/>
 <path transform="matrix(.74118 0 0 .71897 165.01 93.073)" d="m315.55 74.852 43.31-52.149s18.561-19.445 37.123-9.7227 9.722 4.4193 18.562 10.606c7.954 12.374-2.652 35.355-3.536 35.355s-36.239 58.337-36.239 58.337 8.838-10.607-6.188-18.562c-16.793-22.097-53.916-23.865-53.032-23.865z" fill="#fc64e3" fill-rule="evenodd" stroke="#000" stroke-linejoin="round" stroke-width="13.699"/>
 <path transform="matrix(.74118 0 0 .71897 165.01 93.073)" d="m305.82 87.226c-0.884 0 36.239-47.73 36.239-47.73s15.026-1.7679 28.284 1.7677c15.027 6.1872 8.839 1.7678 19.446 9.7228 9.722 7.9549 11.49 26.516 11.49 26.516l-28.284 44.194s0.884-8.839-7.955-18.561c-14.142-11.491-28.285-13.259-37.123-16.795-12.375-1.7677-22.981 1.7678-22.097 0.8839z" fill="url(#a)" fill-rule="evenodd" stroke="#000" stroke-linejoin="round" stroke-width="13.699"/>
 <path transform="matrix(.74118 0 0 .71897 165.01 93.073)" d="m76.875 480.62c0-1.25 6.875-27.5 8.75-27.5s8.125 1.25 8.125 3.125c-10.625 6.25-15 22.5-16.875 24.375z" fill="#fff" fill-rule="evenodd"/>
 <path transform="matrix(.74118 0 0 .71897 165.01 93.073)" d="m122.23 365.37c14.415-22.894 185.05-262.16 190.13-265.56 71.225-29.677-140.1 194.33-190.13 265.56z" fill="#fff" fill-opacity=".5037" fill-rule="evenodd"/>
 <path d="m234.51 414.15c0-1.8291 7.5419-34.139 11.312-44.503 1.257 0 21.127-3.026 28.04 7.9484-24.509 3.6574-38.095 31.678-39.352 36.555z" fill="#fff" fill-opacity=".50196" fill-rule="evenodd"/>
 <path transform="matrix(.74118 0 0 .71897 165.01 93.073)" d="m394.28 17.532s19.502 4.2397 19.502 10.175c5.087 16.958-4.24 26.286-10.175 36.461 1.696-16.11 5.088-23.742-9.327-46.636z" fill-opacity=".25" fill-rule="evenodd"/>
</svg>
