<?xml version="1.0" encoding="UTF-8"?>
<svg viewBox="0 0 437.5 437.5" xmlns="http://www.w3.org/2000/svg" xmlns:xlink="http://www.w3.org/1999/xlink">
 <path d="m101.51 420.19-19.503-380.3 326.88 1.0174c-0.0154 20.061 5.6974 359.95 5.8924 376.59-103.06-20.494-303.92 2.5683-313.27 2.7015z" fill="#040565" fill-opacity=".3977" fill-rule="evenodd"/>
 <path d="m54.372 394.65c-5.846-126.11-7.7638-324.9-17.538-378.34 106.34 15.398 257.76-13.089 324.91-0.94677-20.024 58.673 3.7332 359.95 3.9282 376.59-103.06-20.494-310.87 12.037-311.3 2.7015z" fill="#ffffeb" fill-rule="evenodd" stroke="#99bf98" stroke-width="15.892"/>
 <path d="m75.978 367.16c-15.266-68.113-14.049-323.14-13.58-332.15 100.66 18.277 242.64-3.3405 260.57-2.9816l-0.5074 24.588c-0.0154 20.061-73.65 143.7-73.455 160.34-103.06-20.494-163.69 150.07-173.03 150.2z" fill="#b2d385" fill-opacity=".4327" fill-rule="evenodd"/>
 <path d="m83.231 119.88v75.965h94.252v-75.965h-94.252z" fill="#3a8b39" fill-rule="evenodd"/>
 <path d="m81.824 226.79v111.13h115.35v-111.13h-115.35z" fill="#e1cf80" fill-rule="evenodd"/>
 <path d="m219.69 122.69v35.169h106.91v-35.169h-106.91z" fill="#cbcbe5" fill-rule="evenodd"/>
 <path d="m219.69 177.55v66.117h102.69v-66.117h-102.69z" fill="#d8d2e1" fill-rule="evenodd"/>
 <path d="m83.231 70.641v32.355h241.96v-32.355h-241.96z" fill="#eb7e58" fill-rule="evenodd"/>
 <path d="m320.84 343.02v-14.948h-105.89v14.948h105.89z" fill-rule="evenodd"/>
 <path d="m145.89 287.12h-6.4449c-11.34 0-19.898 1.2731-25.674 3.8192-5.7054 2.5014-8.5581 6.2534-8.5581 11.256 0 4.5114 2.1484 8.0178 6.445 10.519s10.248 3.7521 17.856 3.7521c10.706 0 19.123-2.345 25.251-7.0352 6.128-4.7347 9.2272-11.256 9.2976-19.564v-2.7472h-18.173zm37.719-5.0921v42.814h-19.546v-11.122c-4.1558 4.4668-9.4033 7.7722-15.742 9.9163-6.2689 2.0993-13.911 3.149-22.927 3.149-12.045 0-21.659-2.144-28.844-6.4321-7.1845-4.3328-10.777-10.117-10.777-17.353 0-8.3529 4.4023-14.696 13.207-19.028 8.875-4.3328 21.87-6.4992 38.986-6.4992h26.097v-1.943c-0.0704-5.9855-2.4653-10.318-7.1845-12.998-4.7192-2.7247-12.256-4.0871-22.61-4.0871-6.621 0-13.312 0.603-20.074 1.809s-13.348 2.9705-19.757 5.2931v-12.328c7.1844-1.7421 14.052-3.0374 20.603-3.8861 6.621-0.8933 13.031-1.34 19.229-1.34 9.7907 0 18.137 0.9156 25.04 2.747 6.9732 1.8314 12.608 4.5785 16.905 8.2412 2.6765 2.2334 4.5783 5.0027 5.7053 8.3082 1.1269 3.2607 1.6904 8.1742 1.6904 14.74z"/>
</svg>
