<?xml version="1.0" encoding="UTF-8"?>
<svg viewBox="0 0 300 300" xmlns="http://www.w3.org/2000/svg" xmlns:xlink="http://www.w3.org/1999/xlink">
 <defs>
  <filter id="e">
   <feGaussianBlur result="result10" stdDeviation="3"/>
   <feBlend in="result10" in2="SourceGraphic" mode="multiply" result="result5"/>
   <feComposite in="result5" in2="SourceGraphic" result="fbSourceGraphic"/>
   <feGaussianBlur result="result9" stdDeviation="5"/>
   <feSpecularLighting in="result9" result="result1" specularConstant="2.2" specularExponent="45">
    <fePointLight x="-5000" y="-10000" z="20000"/>
   </feSpecularLighting>
   <feComposite in="result1" in2="fbSourceGraphic" operator="in" result="result2"/>
   <feComposite in="result2" in2="fbSourceGraphic" k2="2" k3=".8" operator="arithmetic" result="result4"/>
   <feBlend in="result4" in2="result4" mode="multiply"/>
  </filter>
  <filter id="d">
   <feGaussianBlur result="result10" stdDeviation="3"/>
   <feBlend in="result10" in2="SourceGraphic" mode="multiply" result="result5"/>
   <feComposite in="result5" in2="SourceGraphic" result="fbSourceGraphic"/>
   <feGaussianBlur result="result9" stdDeviation="5"/>
   <feSpecularLighting in="result9" result="result1" specularConstant="2.2" specularExponent="45">
    <fePointLight x="-5000" y="-10000" z="20000"/>
   </feSpecularLighting>
   <feComposite in="result1" in2="fbSourceGraphic" operator="in" result="result2"/>
   <feComposite in="result2" in2="fbSourceGraphic" k2="2" k3=".8" operator="arithmetic" result="result4"/>
   <feBlend in="result4" in2="result4" mode="multiply"/>
  </filter>
  <filter id="j">
   <feGaussianBlur in="SourceAlpha" result="result0" stdDeviation="6"/>
   <feSpecularLighting in="result0" result="result1" specularExponent="25" surfaceScale="10">
    <feDistantLight azimuth="235" elevation="45"/>
   </feSpecularLighting>
   <feComposite in="SourceGraphic" in2="result1" k2="1" k3="1" operator="arithmetic" result="result4"/>
   <feComposite in="result4" in2="SourceAlpha" operator="in" result="result2"/>
  </filter>
  <filter id="f" x="-.25" y="-.25" width="1.5" height="1.5">
   <feGaussianBlur in="SourceAlpha" result="blur" stdDeviation="3"/>
   <feColorMatrix result="bluralpha" values="1 0 0 0 0 0 1 0 0 0 0 0 1 0 0 0 0 0 0.25 0"/>
   <feOffset dx="7" dy="8" in="bluralpha" result="offsetBlur"/>
   <feMerge>
    <feMergeNode in="offsetBlur"/>
    <feMergeNode in="SourceGraphic"/>
   </feMerge>
  </filter>
  <filter id="a" x="-.25" y="-.25" width="1.5" height="1.5">
   <feGaussianBlur in="SourceAlpha" result="result0" stdDeviation="6"/>
   <feSpecularLighting in="result0" result="result1" specularExponent="25" surfaceScale="10">
    <feDistantLight azimuth="235" elevation="45"/>
   </feSpecularLighting>
   <feComposite in="SourceGraphic" in2="result1" k2="1" k3="1" operator="arithmetic" result="result4"/>
   <feComposite in="result4" in2="SourceAlpha" operator="in" result="fbSourceGraphic"/>
   <feColorMatrix in="fbSourceGraphic" result="fbSourceGraphicAlpha" values="0 0 0 -1 0 0 0 0 -1 0 0 0 0 -1 0 0 0 0 1 0"/>
   <feGaussianBlur in="fbSourceGraphicAlpha" result="blur" stdDeviation="3"/>
   <feColorMatrix result="bluralpha" values="1 0 0 0 0 0 1 0 0 0 0 0 1 0 0 0 0 0 0.25 0"/>
   <feOffset dx="7" dy="8" in="bluralpha" result="offsetBlur"/>
   <feMerge>
    <feMergeNode in="offsetBlur"/>
    <feMergeNode in="fbSourceGraphic"/>
   </feMerge>
  </filter>
  <linearGradient id="b">
   <stop stop-color="#8493ab" offset="0"/>
   <stop stop-color="#d2dfdb" offset="1"/>
  </linearGradient>
  <linearGradient id="c" x1="212.89" x2="242.23" gradientUnits="userSpaceOnUse">
   <stop stop-color="#777774" offset="0"/>
   <stop stop-color="#dddcdd" offset=".58129"/>
   <stop stop-color="#848383" offset="1"/>
  </linearGradient>
  <linearGradient id="i" x2="0" y1="96.875" y2="332.08" gradientUnits="userSpaceOnUse" xlink:href="#b"/>
  <linearGradient id="h" x2="0" y1="69.666" y2="117.35" gradientUnits="userSpaceOnUse" xlink:href="#b"/>
  <linearGradient id="g" x1="-2.8066" x2="52.754" y1="882.81" y2="938.37" gradientUnits="userSpaceOnUse" xlink:href="#b"/>
 </defs>
 <g transform="matrix(3.2412 0 0 3.2412 74.609 -2791.2)" fill-rule="evenodd">
  <path transform="matrix(.27936 0 0 .27936 -19.023 852.64)" d="m47.018 98.438h203.62c1.8103 0 3.2677 2.2065 3.2677 4.9474v198.7c0 2.7408-1.4574 4.9474-3.2677 4.9474h-203.62c-1.8103 0-3.2677-2.2065-3.2677-4.9474v-198.7c0-2.7408 1.4574-4.9474 3.2677-4.9474z" fill="url(#i)" filter="url(#f)" stroke="#a2a7e0" stroke-linejoin="round"/>
  <path transform="matrix(.27936 0 0 .27936 -19.023 852.64)" d="m206.11 68.099c0.66683 0 44.6 27.865 44.6 27.865 2.568 0.95785-204.54 0-204.54 0-1.8103 0 46.6-27.865 46.6-27.865 0.94594-0.35283 113.34 0 113.34 0z" fill="url(#h)" filter="url(#f)" stroke="#a2a7e0" stroke-linejoin="round"/>
  <path d="m-1.4615 884.66h47.13c0.41901 0 0.75634 0.51072 0.75634 1.1451v45.991c0 0.63439-0.33733 1.1451-0.75634 1.1451h-47.13c-0.41901 0-0.75634-0.51072-0.75634-1.1451v-45.991c0-0.6344 0.33733-1.1451 0.75634-1.1451z" fill="url(#g)" stroke="#434143" stroke-linejoin="round" stroke-width=".23146"/>
  <path transform="matrix(.27936 0 0 .27936 -19.023 698.33)" d="m73.58 717.21h1.2771a3.2677 4.9474 0 0 1 3.2677 4.9474v72.918a3.2677 4.9474 0 0 1 -3.2677 4.9474h-1.2771a3.2677 4.9474 0 0 1 -3.2677 -4.9474v-72.918a3.2677 4.9474 0 0 1 3.2677 -4.9474" fill="#4e4f6a" filter="url(#j)"/>
  <g transform="matrix(.20491 0 0 .20491 -7.6478 754.22)" fill="#6270a8" opacity=".67826">
   <path transform="matrix(-.37368 -.64723 .64723 -.37368 -127.22 175.33)" d="m-867.02-163.78h3.6208a3.2677 4.9474 0 0 1 3.2677 4.9474v81.511a3.2677 4.9474 0 0 1 -3.2677 4.9474h-3.6208a3.2677 4.9474 0 0 1 -3.2677 -4.9474v-81.511a3.2677 4.9474 0 0 1 3.2677 -4.9474" filter="url(#a)"/>
   <path transform="matrix(.53367 0 0 .53367 -47.584 342.61)" d="m372.66 724.15c-32.409 0-58.681 26.272-58.681 58.681s26.272 58.681 58.681 58.681 58.681-26.272 58.681-58.681v-0.46429c-0.26098-32.222-26.458-58.217-58.681-58.217zm0.64485 19.835c20.971 0 38.031 16.921 38.201 37.891v0.30952c0 21.092-17.109 38.201-38.201 38.201s-38.201-17.109-38.201-38.201 17.109-38.201 38.201-38.201z" filter="url(#a)"/>
   <path transform="matrix(.74736 0 0 .74736 -123.71 586.97)" d="m385.16 233.2c0 8.4137-6.8207 15.234-15.234 15.234s-15.234-6.8207-15.234-15.234 6.8207-15.234 15.234-15.234c8.3656 0 15.166 6.7457 15.234 15.111" filter="url(#a)"/>
   <path transform="matrix(.74736 0 0 .74736 -127.22 588.14)" d="m372.8 132.03h3.6208a3.2677 4.9474 0 0 1 3.2677 4.9474v81.511a3.2677 4.9474 0 0 1 -3.2677 4.9474h-3.6208a3.2677 4.9474 0 0 1 -3.2677 -4.9474v-81.511a3.2677 4.9474 0 0 1 3.2677 -4.9474" filter="url(#a)"/>
   <path transform="matrix(-.37368 .64723 -.64723 -.37368 -127.22 175.33)" d="m489.65-813.26h3.6208a3.2677 4.9474 0 0 1 3.2677 4.9474v81.511a3.2677 4.9474 0 0 1 -3.2677 4.9474h-3.6208a3.2677 4.9474 0 0 1 -3.2677 -4.9474v-81.511a3.2677 4.9474 0 0 1 3.2677 -4.9474" filter="url(#a)"/>
  </g>
  <g transform="matrix(.27936 0 0 .27936 -19.023 698.33)">
   <path d="m216.84 806.46 14.028-0.16976s-0.36856-3.6266 2.6862-3.6266 2.6823 3.5968 2.6823 3.5968l3.6651-0.0665c2.4986 0 0.77625 13.078 0.77625 13.078l-4.2729-2e-3c-1.5471-7.5e-4 0.74466 3.0952-2.8184 3.094s-0.66006-3.0998-3.1567-3.1008l-13.59-1e-3c-2.4986 0-4.5101-2.43-4.5101-5.4486v-1.9054c0-3.0185 2.0119-5.4059 4.5101-5.4486z" fill="url(#c)" stroke="#999995" stroke-linejoin="round" stroke-width=".4"/>
   <path transform="matrix(.72804 0 0 .72804 -37.042 636.2)" d="m351.9 238.56c0 0.99157-0.80383 1.7954-1.7954 1.7954s-1.7954-0.80382-1.7954-1.7954 0.80382-1.7954 1.7954-1.7954 1.7873 0.79499 1.7953 1.7808" fill="#e0dbeb" filter="url(#d)" opacity=".67826"/>
   <path transform="matrix(.72804 0 0 .72804 -37.042 642.03)" d="m351.9 238.56c0 0.99157-0.80383 1.7954-1.7954 1.7954s-1.7954-0.80382-1.7954-1.7954 0.80382-1.7954 1.7954-1.7954 1.7873 0.79499 1.7953 1.7808" fill="#e0dbeb" filter="url(#d)" opacity=".67826"/>
  </g>
  <g transform="matrix(.27936 0 0 .27936 -19.087 670.62)">
   <path d="m216.84 806.46 14.028-0.16976s-0.36856-3.6266 2.6862-3.6266 2.6823 3.5968 2.6823 3.5968l3.6651-0.0665c2.4986 0 0.77625 13.078 0.77625 13.078l-4.2729-2e-3c-1.5471-7.5e-4 0.74466 3.0952-2.8184 3.094s-0.66006-3.0998-3.1567-3.1008l-13.59-1e-3c-2.4986 0-4.5101-2.43-4.5101-5.4486v-1.9054c0-3.0185 2.0119-5.4059 4.5101-5.4486z" fill="url(#c)" stroke="#999995" stroke-linejoin="round" stroke-width=".4"/>
   <path transform="matrix(.72804 0 0 .72804 -37.042 636.2)" d="m351.9 238.56c0 0.99157-0.80383 1.7954-1.7954 1.7954s-1.7954-0.80382-1.7954-1.7954 0.80382-1.7954 1.7954-1.7954 1.7873 0.79499 1.7953 1.7808" fill="#e0dbeb" filter="url(#e)" opacity=".67826"/>
   <path transform="matrix(.72804 0 0 .72804 -37.042 642.03)" d="m351.9 238.56c0 0.99157-0.80383 1.7954-1.7954 1.7954s-1.7954-0.80382-1.7954-1.7954 0.80382-1.7954 1.7954-1.7954 1.7873 0.79499 1.7953 1.7808" fill="#e0dbeb" filter="url(#e)" opacity=".67826"/>
  </g>
 </g>
</svg>
