<?xml version="1.0" encoding="UTF-8"?>
<svg viewBox="0 0 128 128" xmlns="http://www.w3.org/2000/svg" xmlns:xlink="http://www.w3.org/1999/xlink">
 <defs>
  <linearGradient id="a">
   <stop offset="0"/>
   <stop stop-opacity="0" offset="1"/>
  </linearGradient>
  <linearGradient id="c" x1="2483" x2="2375.5" y1="6145.3" y2="6037.5" gradientUnits="userSpaceOnUse" xlink:href="#a"/>
  <radialGradient id="d" cx="43.893" cy="-3.334" r="51.641" gradientTransform="matrix(1.4953 -.032403 .023713 1.0943 -13.242 -4.885)" gradientUnits="userSpaceOnUse">
   <stop stop-color="#fff" offset="0"/>
   <stop stop-color="#fff" stop-opacity="0" offset="1"/>
  </radialGradient>
  <radialGradient id="m" cx="98.89" cy=".354" r="30.466" gradientTransform="matrix(3.9973 -.039231 .0083232 .84805 -269.49 9.0425)" gradientUnits="userSpaceOnUse">
   <stop stop-color="#eee" stop-opacity=".6" offset="0"/>
   <stop stop-color="#eee" stop-opacity="0" offset="1"/>
  </radialGradient>
  <radialGradient id="n" cx="78.948" cy="50.45" r="16.828" gradientTransform="matrix(2.108 -.16191 .076584 .99706 -93.373 13.308)" gradientUnits="userSpaceOnUse">
   <stop stop-color="#ddd" offset="0"/>
   <stop stop-color="#c0c0c0" offset="1"/>
  </radialGradient>
  <radialGradient id="o" cx="54.866" cy="72.04" r="27.06" gradientTransform="matrix(1 0 0 .99227 0 .69856)" gradientUnits="userSpaceOnUse">
   <stop stop-color="#8f6b32" offset="0"/>
   <stop stop-color="#80602c" offset="1"/>
  </radialGradient>
  <radialGradient id="p" cx="57.878" cy="48.48" r="27.301" gradientTransform="matrix(1.8055 -.078801 .043311 .99236 -51.269 5.4628)" gradientUnits="userSpaceOnUse">
   <stop stop-color="#eee" offset="0"/>
   <stop stop-color="#eee" stop-opacity="0" offset="1"/>
  </radialGradient>
  <radialGradient id="q" cx="47.28" cy="17.831" r="51.25" gradientTransform="matrix(1 0 0 1.0948 0 -5.7883)" gradientUnits="userSpaceOnUse">
   <stop stop-color="#afafaf" offset="0"/>
   <stop stop-color="#888" offset="1"/>
  </radialGradient>
  <filter id="r">
   <feGaussianBlur stdDeviation="0.74616"/>
  </filter>
  <linearGradient id="s" x1="93.63" x2="90.54" y1="-25.663" y2="9.767" gradientUnits="userSpaceOnUse">
   <stop stop-color="#555" offset="0"/>
   <stop stop-color="#bbb" offset="1"/>
  </linearGradient>
  <linearGradient id="t" x1="75.32" x2="68.836" y1="-26.391" y2="32.457" gradientUnits="userSpaceOnUse">
   <stop stop-color="#737373" offset="0"/>
   <stop stop-color="#737373" stop-opacity="0" offset="1"/>
  </linearGradient>
  <radialGradient id="b" cx="26.25" cy="122.17" r="18.333" gradientTransform="matrix(1 0 0 .18182 0 99.955)" gradientUnits="userSpaceOnUse" xlink:href="#a"/>
 </defs>
 <path transform="matrix(1.2727 0 0 1 61.591 -3.75)" d="m44.583 122.17a18.333 3.3333 0 1 1 -36.667 0 18.333 3.3333 0 1 1 36.667 0z" fill="url(#b)" opacity=".282" stroke-dashoffset="30" stroke-width="2.2"/>
 <path transform="matrix(1.2727 0 0 1 -9.6591 -3.3333)" d="m44.583 122.17a18.333 3.3333 0 1 1 -36.667 0 18.333 3.3333 0 1 1 36.667 0z" fill="url(#b)" opacity=".282" stroke-dashoffset="30" stroke-width="2.2"/>
 <path d="m9.4789 33.673c0.090143 0.027878 0.36835 0.075459 0.27653 0.05534-1.04e-4 -1.3e-5 -0.18221-0.030366-0.27653-0.05534zm0.27653 0.05534c0.010643 0.003052 0.12787 0.008297 0.17584 0.007871-0.086489-7.82e-4 -0.17581-0.007867-0.17584-0.007871zm0.37275-0.00214c0.015328-9.24e-4 0.11339-0.02775 0.1471-0.040239-0.07255 0.018825-0.12245 0.033843-0.1471 0.040239zm0.47748-0.16351c0.022353-0.006884 0.12794-0.07231 0.15838-0.098141-0.076424 0.049622-0.10786 0.065342-0.15838 0.098141zm0.43234-0.33061c0.021075-0.017883 0.098844-0.11609 0.11665-0.14732-0.041849 0.052053-0.064192 0.082073-0.11665 0.14732zm3.1124 3.0983c3.4755 3.9818 8.6649 6.07 13.542 6.7178 0.043257 0.005976 0.08623 0.013859 0.12879 0.023623 0.013497 0.002996 0.02449 0.012852 0.037893 0.01618 5.5595 0.71469 9.1435 1.7651 11.258 2.8441 0.002335-0.001996 0.004675-0.003981 0.007025-0.005962 0.00551 0.002812 0.013455 0.005271 0.018945 0.008087 0.001996 0.002338 0.00398 0.004679 0.005961 0.007025 0.03661 0.008131 0.072896 0.017645 0.10878 0.028524 0.010678 0.002933 0.021324 0.005982 0.031931 0.00915 0.040685 0.016737 0.080603 0.035276 0.11964 0.055559 0.006332 0.002653 0.012648 0.005348 0.018945 0.008089 0.029744 0.014484 0.058998 0.029962 0.087707 0.046404 0.014859 0.008308 0.013461 0.009393 0.024906 0.015116 0.006336 0.00265 0.01265 0.005344 0.018948 0.008086 0.023255 0.012164 0.046182 0.024938 0.06876 0.038317 0.021648 0.012721 0.033738 0.036587 0.054712 0.050237 0.032753 0.02406 0.032689 0.022007 0.073656 0.058326 0.10863 0.079939 0.21988 0.15717 0.30549 0.26034 0.35668 0.25892 0.69508 0.50588 0.95925 0.81721l0.11326 0.13347 35.981 42.219 0.14306 0.16859 0.29804 0.35124c2.8324 3.338 3.6442 7.8557 3.2602 12.542-0.003806 0.03679-0.008989 0.07343-0.015533 0.10984-7.4e-4 0.01317-0.002495 0.0258-0.003193 0.03896-0.27544 5.1758 2.5079 9.7439 6.2731 12.946 0.016552 0.01407 0.032157 0.02918 0.048754 0.0432 0.010383 0.00726 0.020668 0.01463 0.030865 0.02215 0.012427 0.00952 0.024713 0.01924 0.03683 0.02916 5.6815 4.4738 13.568 4.6853 19.934 1.0646 0.22197-0.1262 0.35799-0.35043 0.36762-0.57776 0.00934-0.22054-0.10791-0.46069-0.32273-0.60818l-0.6195-0.41681-1.0029-0.68351c-0.05602-0.03562-0.10957-0.07494-0.1603-0.11772-0.01157-0.01033-0.01856-0.02448-0.02981-0.03513l-8.222-6.4714c-0.00411-0.00296-0.01498-0.00519-0.01895-0.00808l-0.04279-0.03619c-0.03813-0.03165-0.07465-0.06518-0.10942-0.10048-0.0324-0.02998-0.066676-0.05388-0.10346-0.09345-0.016305-0.01754-0.01942-0.03749-0.034707-0.05513-0.077024-0.10326-0.14029-0.21611-0.18819-0.3357-0.004426-0.00837-0.006585-0.01862-0.010861-0.02704-0.054197-0.10684-0.14328-0.20262-0.17627-0.32165-0.10565-0.38111-0.077591-0.5623-0.083902-0.81085-0.020668-0.81367 0.15355-1.7774 0.59704-2.899 0.83858-2.1208 2.3746-4.3419 4.0234-5.8668 0.03165-0.03813 0.06518-0.07465 0.10048-0.10942 0.00437-0.00395 0.00968-0.00798 0.01405-0.01193 0.01859-0.01673 0.03403-0.02959 0.06323-0.05364 0.02085-0.0175 0.04152-0.0372 0.06322-0.05365 0.04168-0.03004 0.09011-0.06441 0.09026-0.0645 0.00829-0.00633 0.01876-0.0046 0.02703-0.01086 0.72369-0.54847 1.3332-0.90235 2.0229-1.0762 0.13454-0.0339 0.20562-0.04618 0.2131-0.04791l0.00979 0.04003c0.44993-0.14942 0.94417-0.07492 1.3301 0.20048l3.6088 2.5442 0.02491 0.01511 0.05577 0.03725c2e-3 0.00234 0.00398 0.00468 0.00597 0.00703 0.02117 0.00993 0.04211 0.02037 0.0628 0.03129 0.06943 0.0308 0.1364 0.06687 0.20031 0.10793l6.9283 4.7902c0.19633 0.13587 0.45825 0.17152 0.66609 0.08727 0.21613-0.08762 0.38154-0.28399 0.42829-0.52051 0.02825-0.14869 0.04103-0.36384 0.08727-0.66609 0.49535-3.238 0.16079-6.5353-1.0389-9.4975-0.0062-0.0153-0.00951-0.03175-0.01576-0.04704-0.00291-0.00587-0.00914-0.00822-0.01191-0.01405-0.00846-0.01778-0.02183-0.03095-0.02875-0.04811-0.00177-0.0044 0.00278-0.00858 0.00107-0.01298-0.00116-0.00276-0.00481-0.00429-0.00597-0.00703-1.0779-2.5581-2.8248-4.8096-4.9398-6.562-0.02804-0.021562-0.06-0.036007-0.08665-0.059384-2.3139-1.8746-4.9357-3.1268-7.8315-3.4196-0.01487-0.00139-0.03017-0.008436-0.04492-0.010215-0.00867-6.28e-4 -0.01731-0.001345-0.02597-0.002133-4.7994-0.68203-10.15-1.0962-13.489-4.4911-0.016349-0.018335-0.032255-0.037073-0.047683-0.056197-0.020446-0.022784-0.034493-0.039338-0.053648-0.063224l-20.088-23.674c-0.004004-0.004662-0.007978-0.009343-0.011922-0.014051 0.035781 0.043423-0.004299 0.001132-0.085579-0.072377-0.027153-0.025121-0.053356-0.051254-0.078557-0.078336-0.022992-0.024248-0.044095-0.05168-0.065567-0.077273-0.017571-0.020938-0.037135-0.041431-0.053647-0.063223l-0.38745-0.45661-0.053647-0.063224c-0.021758-0.025354-0.045387-0.05064-0.06557-0.077274-0.022618-0.029272-0.044137-0.059378-0.064506-0.090257-0.061162-0.094898-0.093647-0.13907-0.045557-0.082168-0.001993-0.002338-0.00398-0.004678-0.005961-0.007026l-14.954-17.808c-0.001993-0.002337-0.00398-0.004676-0.005961-0.007025l-0.32784-0.38636c-0.96719-1.1398-1.7136-2.4118-2.2585-3.7866-0.003169-0.008001-0.006804-0.034327-0.009793-0.040021-0.011548-0.031003-0.022059-0.062386-0.031507-0.094091-0.017347-0.032582-0.025782-0.014976-0.059827-0.22714-0.003208-0.010378-6.45e-4 -0.022607-0.003833-0.032996-0.94477-3.0813-0.99811-6.6407-0.72218-10.093 0.002937-0.036725-4.54e-4 -0.074213 0.002551-0.11091 1.67e-4 -0.002247 0.006851-0.003716 0.007025-0.00596 0.003496-0.044902 0.003481-0.085341 0.010639-0.12986 1.98e-4 -0.006368 0.007905-0.012584 0.008091-0.018948 0.17106-5.7948-2.7117-10.718-6.897-14.265-0.006336-0.002653-0.012651-0.005347-0.018949-0.008088-0.036017-0.025259-0.070893-0.052107-0.10452-0.080465-6.2633-4.9609-14.953-5.2077-21.988-1.2068-0.22198 0.1262-0.35799 0.35042-0.36762 0.57776-0.010158 0.23966 0.10151 0.46414 0.30976 0.60712l0.69314 0.47512c0.008351 0.004957 0.016655 0.009995 0.024907 0.015113 0.031706 0.020944 0.062598 0.043101 0.092604 0.066416l1.186 0.84232c0.020953 0.014231 0.041538 0.028995 0.061736 0.044277l9.1259 7.1665c0.23826 0.18696 0.49237 0.45153 0.66187 0.93664 0.12902 0.36925 0.14721 0.69205 0.15565 1.052 0.02207 0.94118-0.20266 2.0171-0.69069 3.2443-0.95479 2.4009-2.7282 4.9273-4.5877 6.6115-0.044074 0.041792-0.063987 0.058688-0.1124 0.095373-0.85453 0.66802-1.5824 1.1105-2.4099 1.3321-1.1077 0.32164-3.5434-1.4669-5.8487-3.048-0.01006-0.004961-0.021967-0.003983-0.031932-0.009152-0.056011-0.027147-0.11026-0.057789-0.16243-0.091746l-7.8066-5.3981c-0.19631-0.13585-0.45826-0.17152-0.6661-0.087259-0.21614 0.087621-0.38154 0.28399-0.42829 0.5205-0.037685 0.19846-0.04262 0.39842-0.091515 0.71804-0.5533 3.6026-0.16307 7.2661 1.1876 10.556 0.015862 0.039746 0.029998 0.080158 0.042366 0.12113 0.001991 0.00641 0.00298 0.013567 0.004897 0.02001 0.010734 0.025914 0.037198 0.042679 0.046622 0.069183 0.664 1.7196 1.5927 3.1254 2.7529 4.4546zm-2.8737-3.4579c0.015114-0.024907 0.052862-0.11332 0.056621-0.13262-0.0099 0.022139-0.026993 0.066399-0.056621 0.13262zm97.803 66.462c0.04862 0.05941-0.01477 0.02887 0 0zm7.1074-5.6926c0.02619 0.02611 0.03555 0.01816 0.01405-0.01192l-0.01405 0.01192z" fill="#696969" stroke-linecap="round" stroke-linejoin="round" stroke-width="2"/>
 <path d="m32.188 4.9688c-2.5484-0.12075-5.1179 0.48694-7.5938 1.4688l8.9375 7c0.45596 0.35778 1.094 1.0751 1.4062 1.9688 0.24657 0.70571 0.27173 1.3439 0.28125 1.75 0.031367 1.3376-0.30494 2.7228-0.875 4.1562-1.1031 2.7739-2.9487 5.4977-5.125 7.4688-0.24808 0.23523-0.38102 0.29436-0.28125 0.21875-0.97848 0.76491-1.9828 1.3649-3.1875 1.6875-1.0259 0.29789-1.7607 0.067661-2.4062-0.15625s-1.2239-0.53338-1.8125-0.875c-1.1771-0.68325-2.3666-1.5351-3.5-2.3125-0.058394-0.027089-0.011333 0.020922-0.1875-0.09375-0.010518-0.010315-0.020935-0.020732-0.03125-0.03125l-5.5-3.7812c-0.1161 2.545 0.15224 5.0507 1.0938 7.3438 7.2e-5 0.010417 7.2e-5 0.020833 0 0.03125 0.076583 0.1919 0.010374 0.050469 0.03125 0.125s0.05087 0.17321 0.03125 0.125c0.021339 0.051256 0.042358 0.005854 0.0625 0.0625 0.003368 0.008721-0.00338 0.022553 0 0.03125 0.55865 1.4373 1.3229 2.5179 2.3438 3.6875 2.9999 3.4369 7.6712 5.3772 12.125 5.9688-0.6755-0.093292-0.54358-0.16514 0.3125 0.03125 0.05243 0.011643 0.045067 0.049397 0.09375 0.0625 5.2347 0.69355 8.7907 1.644 11.25 2.8125 0.084724 0.018819 0.00799 0.016236 0.0625 0.03125s0.040954 0.023385 0.0625 0.03125c0.016108 0.002996 0.014759-0.00342 0.03125 0 0.065965 0.013682 0.053463-0.021366 0.125 0 0.074507 0.027401 0.14752 0.058694 0.21875 0.09375 0.03198 0.013157 0.004783 0.019691 0.03125 0.03125 0.034753 0.012291 0.077072 0.025185 0.09375 0.03125 0.010084 0.003667 0.062445-2.4e-5 0.0625 0 0.021237 0.020425 0.042075 0.041263 0.0625 0.0625 3.6e-5 1.5e-5 0.026155 0.028649 0.03125 0.03125 0.003312 0.00169 0.026105-0.002636 0.03125 0 0.27844 0.14584 0.35606 0.20149 0.15625 0.09375 0.011228 0.005993 0.020015-0.006062 0.03125 0v0.03125c-0.020018-0.013122-0.028262-0.028318 0.125 0.0625 0.006814 0.004309 0.026017-0.003615 0.03125 0-0.039791-0.024985 0.032299 0.033927 0.03125 0.03125-0.002548-0.006501-0.11903-0.10723 0.09375 0.03125 0.031763 0.020054 0.063022 0.040894 0.09375 0.0625 0.023603 0.017338 0.032099 0.06698 0.0625 0.09375 0.025794 0.01898 0.066266 0.073228 0.09375 0.09375 0.01395 0.010416 0.048104 0.020293 0.0625 0.03125 0.047269 0.035978 0.10402 0.11222 0.15625 0.15625-0.005569-0.006167 0.006164-0.024451 0-0.03125 0.33354 0.24213 0.81949 0.56966 1.3438 1.1875 0.032157 0.03033 0.06342 0.061593 0.09375 0.09375v0.03125l0.09375 0.09375 35.906 42.125c0.021237 0.020425 0.042075 0.041263 0.0625 0.0625l0.125 0.15625 0.28125 0.34375c3.3475 3.945 4.1647 9.0954 3.75 14.156 7.2e-5 0.01042 7.2e-5 0.02083 0 0.03125 0.006135-0.05929-0.005912 0.07723 0 0.03125 0.010292-0.18292 0.011016-0.17644 0 0.03125-0.22664 4.2588 2.0577 8.1397 5.375 11 0.022489 0.01939 0.039915 0.0432 0.0625 0.0625 0.010417-7e-5 0.020833-7e-5 0.03125 0 0.00569 0.00485-0.005696 0.02641 0 0.03125 0.034871 0.02712 0.024662-7.1e-4 0.0625 0.03125-0.033369-0.02425 0.14905 0.12769 0.03125 0.03125 4.2174 3.3209 9.8263 3.7742 14.906 1.8438l-7.6875-6.0625c-0.042731-0.02981-0.084422-0.06107-0.125-0.09375-0.031763-0.02005-0.063022-0.04089-0.09375-0.0625-0.55927-0.4642-0.33826-0.33429-0.1875-0.21875 0.15944 0.14752-0.11216-0.08997-0.09375-0.0625 0.036342 0.05422 0.17682 0.20202-0.15625-0.15625-0.033425-0.03403-0.073483-0.03911-0.09375-0.0625-0.03333-0.05081-0.064605-0.10293-0.09375-0.15625-0.1717-0.23018-0.25039-0.42274-0.34375-0.625h-0.03125c-5e-5 -1e-4 -0.028125-0.05467-0.03125-0.0625 0.027732 0.05467-0.044554-0.12935-0.03125-0.09375-0.007974-0.01922-0.023637-0.04349-0.03125-0.0625 0.028346 0.14589-0.063516 0.19187-0.28125-0.59375-0.20423-0.73672-0.15829-1.4241-0.15625-1.3438-0.029892-1.1769 0.21518-2.4599 0.75-3.8125 0.94701-2.3951 2.5468-4.6875 4.4062-6.4688 0.42527-0.49817 0.35424-0.41657 0.1875-0.21875-0.051306 0.060868 0.17973-0.17797 0.0625-0.0625 0.020425-0.021237 0.041263-0.042075 0.0625-0.0625 8.21e-4 -0.001119-8e-6 -0.031243 0-0.03125 0.066737-0.060056 0.081242-0.043928 0.15625-0.09375-0.36422 0.30564-0.37035 0.25051 0.125-0.125 0.020672-0.010737 0.041507-0.021155 0.0625-0.03125 0.020361-0.014673 0.012272-0.018116 0.03125-0.03125 7.5e-5 -5.7e-5 0.0539-0.027213 0.0625-0.03125 0.06599-0.043202 0.15616-0.093694 0.15625-0.09375v0.03125h0.03125c0.03023-0.014136 0.02757-0.046173 0.0625-0.0625 0.75755-0.5519 1.554-1.0584 2.5625-1.3125 0.10685-0.026921 0.18661-0.047671 0.28125-0.0625-3e-4 6.9e-5 0.11742-0.015886 0.21875-0.03125 0.07057-0.006418 0.15288-0.030037 0.1875-0.03125 0.17893-1.89e-4 0.35725 0.02079 0.53125 0.0625 0.77149-0.006335 1.5403 0.13183 2.1875 0.59375l3.3438 2.375c0.03147 0.009735 0.06273 0.020154 0.09375 0.03125 0.13299 0.07068 0.25861 0.15443 0.375 0.25 0.02944 0.01749 0.03178 0.011511 0.0625 0.03125 0.02099 0.010095 0.04183 0.020513 0.0625 0.03125l4.625 3.1875c0.05755-2.1342-0.14067-4.2601-0.90625-6.1875-0.00293-0.005201-0.03123-0.031214-0.03125-0.03125-0.00555-0.011657 0.00575-0.049836 0-0.0625-0.00267-0.003499 0.00213-0.028459 0-0.03125-0.00161-0.002117-0.02996 0.001691-0.03125 0-0.00469-0.006148-0.03125-0.062495-0.03125-0.0625-0.92278-2.19-2.4296-4.1533-4.2812-5.6875-0.33855-0.26032-0.35659-0.2969-0.125-0.09375-2.0394-1.6522-4.1669-2.6327-6.5625-2.875-0.09235-0.008632-0.05356-0.019694-0.125-0.03125-0.14781-0.02391-0.1697-0.063933-0.25-0.09375 0.09424 0.027231 0.05548 0.071703 0.21875 0.09375-4.6862-0.66594-10.683-0.92694-14.812-5.125-0.021606-0.030728-0.042446-0.061987-0.0625-0.09375 0.12025 0.13488-0.040219-0.043268-0.0625-0.0625s0.10348 0.14324-0.0625-0.0625l0.03125-0.03125c-0.24562-0.32347-0.45887-0.77872-0.46875-0.8125-0.010901-0.037285 0.13093 0.44565 0.375 0.75l-19.844-23.375c-0.019252-0.018409-0.070445-0.072673-0.09375-0.09375-7.2e-5 -0.010417-7.2e-5 -0.020833 0-0.03125-0.04941-0.045709-0.062727-0.093894-0.09375-0.125s-0.084544-0.050275-0.125-0.09375c0.11326 0.11944 0.030468 0.097554-0.15625-0.125 0.30459 0.36296 0.24926 0.33769-0.125-0.15625l-0.21875-0.3125-0.125-0.125c-0.36374-0.4238-0.37767-0.4797-0.15625-0.1875-0.018713-0.020944-0.012785-0.0405-0.03125-0.0625l-0.125-0.125c-7.2e-5 -0.010417-7.2e-5 -0.020833 0-0.03125l-14.844-17.656-0.3125-0.40625c-1.0452-1.2318-1.7937-2.6191-2.4062-4.0625-0.025713-0.060593-0.1-0.095367-0.125-0.15625 3.7e-5 7e-5 -0.020145-0.065419-0.03125-0.09375-0.013997-0.034643-0.048732-0.059016-0.0625-0.09375-1.9e-5 -4.9e-5 6.17e-4 -0.029157 0-0.03125-0.010737-0.020672-0.021155-0.041507-0.03125-0.0625-0.017597-0.037582-0.050095-0.061267-0.0625-0.09375-0.027186-0.071189-0.013855-0.070994-0.03125-0.125-0.069581-0.21602-0.10465-0.3732-0.125-0.5h0.0625c-0.024311-0.082776-0.039328-0.16695-0.0625-0.25-0.001011-0.01575 6.59e-4 -0.017608 0-0.03125-0.005848-0.09235-0.031901-0.15186-0.03125-0.1875-0.88794-3.3295-0.95664-6.8518-0.6875-10.219-0.02992 0.37399-0.036971 0.32649 0-0.125h-0.03125c1e-6 -4e-5 0.027017-0.076592 0.03125-0.09375 2.7e-4 -0.010764-2.46e-4 -0.020493 0-0.03125 0.11328-4.9611-2.327-9.1825-6.0938-12.375-0.01045-0.0088032-0.022105-0.023322-0.03125-0.03125-0.041662-0.036116-0.070446-0.039778-0.09375-0.0625-2.7442-2.1736-5.9528-3.2456-9.3438-3.4062zm34.625 50.5c0.006728 0.006422 0.02485-0.006014 0.03125 0v-0.03125l-0.03125 0.03125zm-53.281-24.312h-0.03125c0.00737 0.033721 0.039119 0.2047 0.0625 0.34375-0.02626-0.14559-0.031414-0.3443-0.03125-0.34375zm-0.09375-0.21875c-0.3584-0.86524-0.80636-0.98613-0.78125-0.96875 0.021212 0.014685 0.43355 0.36253 0.75 0.96875h0.03125z" fill="url(#q)" stroke-linecap="round" stroke-linejoin="round" stroke-width="2"/>
 <path d="m32.156 5.5312c-2.1215-0.10052-4.2859 0.3499-6.4062 1.0938l8.125 6.375c0.5406 0.4242 1.2349 1.1917 1.5938 2.2188 0.27671 0.79198 0.30276 1.5222 0.3125 1.9375 0.03373 1.4384-0.34997 2.8664-0.9375 4.3438-1.1352 2.8546-3.0017 5.6512-5.25 7.6875-0.1146 0.10867-0.2044 0.16304-0.28125 0.21875-0.009993 0.010832-0.020418 0.021257-0.03125 0.03125-0.009214 0.006421-0.022244 0.025208-0.03125 0.03125-0.018349 0.014264-0.044107 0.017083-0.0625 0.03125-0.9863 0.75972-2.024 1.3821-3.2812 1.7188-1.166 0.33857-2.0927 0.071751-2.75-0.15625-0.69751-0.24195-1.3071-0.58974-1.9062-0.9375-1.1774-0.68342-2.3369-1.5246-3.4375-2.2812-0.030058-0.020666-0.063792-0.041952-0.09375-0.0625-0.053624-0.026746-0.12441-0.021433-0.1875-0.0625-0.011734-0.020148-0.022172-0.041024-0.03125-0.0625h-0.03125c-0.013063-0.012811-0.049689-0.049437-0.0625-0.0625l-4.5-3.0938c-0.001508 2.1201 0.22512 4.1753 1 6.0625 2.97e-4 0.010415 2.97e-4 0.020835 0 0.03125 0.010317 0.025852 0.024082 0.043717 0.03125 0.0625 0.001187 0.020816 0.001187 0.041684 0 0.0625 0.001356 4e-3 0.029854-0.004251 0.03125 0 0.002684 0.008176-0.003699 0.052384 0 0.0625 4.9e-4 0.001751-0.001369 0.026915 0 0.03125 2.97e-4 0.010415 2.97e-4 0.020835 0 0.03125 0.003216 0.011199 0.028014 0.019793 0.03125 0.03125 0.010381 0.02245 0.056094 0.044483 0.0625 0.0625 0.027058 0.070064-0.003894 0.052785 0 0.09375 0.52825 1.332 1.2355 2.311 2.2188 3.4375 2.7647 3.1674 7.0652 5.061 11.25 5.7188 0.030108 0.004732 0.063655-0.004605 0.09375 0 0.097818 1.11e-4 0.17769-0.016461 0.28125 0 0.13808 0.021948 0.30713 0.073585 0.53125 0.125 0.052559 0.011672 0.075478 0.033207 0.125 0.0625 0.002123 2.84e-4 -0.002122 0.030966 0 0.03125 0.011755 0.001573 0.019512-0.001575 0.03125 0 4.0877 0.33015 8.458 1.6748 12.125 3.125 0.034368 0.018002 0.035092 0.04799 0.0625 0.0625 0.030834 0.016324 0.069091 0.017683 0.09375 0.03125 2.97e-4 0.010415 2.97e-4 0.020835 0 0.03125 0.013784 0.00573 0.01781-0.007252 0.03125 0 0.008437 0.003822 0.023984-0.003579 0.03125 0 0.006093 0.00352 0.025341-0.003492 0.03125 0 2.97e-4 0.010415 2.97e-4 0.020835 0 0.03125 0.010415-2.97e-4 0.020835-2.97e-4 0.03125 0 0.006097 0.002946-0.008156 0.027314 0 0.03125 0.010415-2.97e-4 0.020835-2.97e-4 0.03125 0 0.012541 0.006916 0.05217-0.005409 0.0625 0 0.053718 0.028127 0.096748 0.055026 0.15625 0.09375 0.039451 0.024908 0.055597 0.066923 0.09375 0.09375 0.063173 0.046405 0.034287 0.059252 0.0625 0.09375 0.025888 0.019049 0.015734 0.017885 0.03125 0.03125 0.001929 8.21e-4 0.028558-6.62e-4 0.03125 0 0.005782 0.005519-0.004216 0.026723 0 0.03125s0.028189-0.003707 0.03125 0c0.013055 0.007092-0.006603 0.002987 0.03125 0.03125 0.021421 0.011575 0.020297-8.72e-4 0.0625 0.03125 0.023192 0.017652 0.067026 0.076689 0.125 0.125 0.022399 0.018665 0.037508 0.007789 0.0625 0.03125 0.31138 0.22464 0.78344 0.61277 1.3125 1.2188l0.03125-0.03125c0.014976 0.014125 0.016589 0.048052 0.03125 0.0625 0.024435 0.024081 0.070208 0.03754 0.09375 0.0625 0.023995 0.029023 0.044939 0.060438 0.0625 0.09375v0.03125c0.010415-2.97e-4 0.020835-2.97e-4 0.03125 0 2.97e-4 0.010415 2.97e-4 0.020835 0 0.03125 2.97e-4 0.010415 2.97e-4 0.020835 0 0.03125l35.875 42.031 0.03125 0.0625c0.012938 0.012938 0.049817 0.018062 0.0625 0.03125 0.010832 0.009993 0.021257 0.020418 0.03125 0.03125l0.125 0.15625 0.28125 0.34375c3.415 4.0246 4.2186 9.2108 3.8438 14.281 8e-6 5e-5 0.031247 0.12485 0.03125 0.125 3.9e-5 0.00202 0.001095 0.06549 0 0.09375-3.65e-4 0.00942 4.8e-4 0.01979 0 0.03125-9.61e-4 0.02293 0.001389 0.03403 0 0.0625-6.95e-4 0.01424 7.94e-4 0.01628 0 0.03125-0.21454 4.0315 1.918 7.753 5.125 10.531 0.005745 0.00498-0.005751 0.02628 0 0.03125 0.005592 0.00483 0.025652-0.00483 0.03125 0 0.010415-3e-4 0.020835-3e-4 0.03125 0 2.97e-4 0.01041 2.97e-4 0.02084 0 0.03125 0.004852 0.00524 0.034087 0.00162 0.03125 0 0.007455 4e-3 -0.006659 0.02733 0 0.03125 0.015537 0.00915 0.019298 0.02269 0.03125 0.03125 0.018782 0.01345 0.049231 0.02004 0.0625 0.03125 0.010415-3e-4 0.020835-3e-4 0.03125 0 0.004599 0.00406 0.017823 0.01974 0.03125 0.03125 0.005184 0.00545 1.2e-4 0.03139 0 0.03125 0.010415-3e-4 0.020835-3e-4 0.03125 0 3.7637 2.9233 8.6686 3.4059 13.281 1.9688l-6.7812-5.375c-0.044767 0.01312-0.062202-0.04147-0.09375-0.0625-0.017371-0.01097-0.045377-0.01991-0.0625-0.03125-0.11624-0.08145-0.20559-0.18503-0.3125-0.28125-0.008873-0.00785-0.023063-0.02389-0.03125-0.03125s-0.023698-0.02435-0.03125-0.03125c-0.004608-0.00491-0.02513 0.00658-0.03125 0-0.005746-0.0053 0.005377-0.02624 0-0.03125-0.013918-0.015-0.072222-0.03929-0.09375-0.0625-0.003829-0.00426 0.004103-0.02664 0-0.03125 0.005973 0.00302-0.030081-0.03751-0.0625-0.0625-0.015347-0.02374-0.039427-0.02927-0.0625-0.09375-0.024282-0.02062-0.033895 0.00176-0.0625-0.03125-0.021476-0.00908-0.042352-0.01952-0.0625-0.03125-0.029249-0.04459-0.035821-0.11006-0.0625-0.15625-0.59692-0.82075-0.82385-1.7046-1.0312-2.6875-0.007683-0.14146-0.001727-0.26412 0-0.34375 5.76e-4 -0.02654-0.001203-0.04113 0-0.0625-2.56e-4 -0.01009 2.19e-4 -0.02115 0-0.03125-8.96e-4 -0.04139 0.031514-0.08341 0.03125-0.125-0.007725-1.2188 0.24657-2.4916 0.78125-3.8438 0.97248-2.4595 2.6048-4.7967 4.5-6.625 0.029603-0.034678 0.006319-0.033281 0.03125-0.0625 0.048396-0.05672 0.061501-0.055916 0.09375-0.09375 5.1e-5 -1.07e-4 0.029336 0.003549 0.03125 0 0.003827-0.007097-0.006913-0.018875 0-0.03125 0.004963-0.005824-0.004487-0.025982 0-0.03125 0.008156-0.012361 0.024502 0.009746 0.03125 0 0.008435-0.012183-0.006567-0.022523 0-0.03125 0.003039-0.003569 0.028519 0.003208 0.03125 0 0.009993-0.010832 0.020418-0.021257 0.03125-0.03125-2.97e-4 -0.010415-2.97e-4 -0.020835 0-0.03125-2.97e-4 -0.010415-2.97e-4 -0.020835 0-0.03125 0.020148-0.011734 0.041024-0.022172 0.0625-0.03125 0.009993-0.010832 0.020418-0.021257 0.03125-0.03125-2.97e-4 -0.010415-2.97e-4 -0.020835 0-0.03125 0.049215-0.044288 0.10522-0.096065 0.15625-0.125 0.01759-0.013973 0.043079-0.016086 0.0625-0.03125 0.038095-0.029745 0.048228-0.059242 0.09375-0.09375 0.020148-0.011734 0.041024-0.022172 0.0625-0.03125 0.010415-2.97e-4 0.020835-2.97e-4 0.03125 0-2.97e-4 -0.010415-2.97e-4 -0.020835 0-0.03125 0.025664-0.01333 0.036418-0.018708 0.0625-0.03125 0.017779-0.010435 0.028531-0.029879 0.03125-0.03125 0.005437-0.002741 0.023643 0.00382 0.03125 0 0.029096-0.018377 0.041477-0.018933 0.0625-0.03125 0.033636-0.019707 0.093702-0.06247 0.09375-0.0625 0.030247-0.013215 0.061624-0.023674 0.09375-0.03125 0.020148-0.011734 0.04102-0.022172 0.0625-0.03125 0.01041-2.97e-4 0.02084-2.97e-4 0.03125 0 0.74843-0.53784 1.567-1.0772 2.625-1.3438 0.10481-0.026406 0.1871-0.042852 0.3125-0.0625 0.01041-2.97e-4 0.02084-2.97e-4 0.03125 0 0.03025-0.013215 0.06162-0.023674 0.09375-0.03125 0.03443-0.004897 0.05823 0.005386 0.09375 0 0.01041-2.97e-4 0.02084-2.97e-4 0.03125 0-0.00602 5.47e-4 0.03146-0.024938 0.0625-0.03125s0.0296-0.026812 0.15625-0.03125c0.01041-2.97e-4 0.02084-2.97e-4 0.03125 0 0.17924-1.89e-4 0.35541 0.028763 0.53125 0.0625 0.04214 0.008086 0.08322 0.021236 0.125 0.03125 0.80345 0.008921 1.6409 0.16359 2.375 0.6875l3.1875 2.2812h0.03125c0.02978 0.009546 0.06429 0.020711 0.09375 0.03125 0.02148 0.009078 0.04235 0.019516 0.0625 0.03125 0.1245 0.066168 0.23064 0.16605 0.34375 0.25-0.01609-0.006272 0.04813 0.022711 0.0625 0.03125 0.01001 0.00495 0.02088-0.005515 0.03125 0 0.01125 0.008956 0.02013 0.02212 0.03125 0.03125 0.01034 0.005208 0.02097-0.005341 0.03125 0 0.02248 0.019119 0.04338 0.04002 0.0625 0.0625l3.7188 2.5625c-0.03159-1.6818-0.20549-3.353-0.78125-4.8438-3e-4 -0.010415-3e-4 -0.020835 0-0.03125-9e-4 -0.002298-0.03035 0.002297-0.03125 0-0.01083-0.009993-0.02126-0.020418-0.03125-0.03125-2.7e-4 -5.57e-4 -0.01943-0.058725-0.03125-0.09375-0.00625-0.012205 0.00454-0.021917 0-0.03125-0.00289-0.011947 0.00184-0.02107 0-0.03125-0.00276-0.015269-0.02996-0.01921-0.03125-0.03125-0.88535-2.1012-2.3378-3.988-4.125-5.4688-0.04919-0.037827-0.06155-0.037573-0.09375-0.0625-0.01083-0.009993-0.02126-0.020418-0.03125-0.03125-1.9768-1.6015-4.0008-2.5506-6.2812-2.7812-0.03744-0.0035-0.07655-0.018301-0.125-0.03125-0.0114-0.003047-0.0204 0.003234-0.03125 0-0.0192-0.002728-0.04325 0.002714-0.0625 0-4.6174-0.65105-10.744-0.93594-15.031-5.25-1.06e-4 -9.1e-5 -0.044364-0.015136-0.0625-0.03125-2.97e-4 -0.010415-2.97e-4 -0.020835 0-0.03125-0.003626-0.003724-0.029563 0.001788-0.03125 0-2.97e-4 -0.010415-2.97e-4 -0.020835 0-0.03125-2.82e-4 -2.16e-4 -0.053498-0.022145-0.0625-0.03125s0.004256-0.026558 0-0.03125c-0.008512-0.009383-0.02608-0.025167-0.03125-0.03125-0.003446-0.004055 0.003633-0.026904 0-0.03125-0.007266-0.008692-0.022238-0.020212-0.03125-0.03125-0.021476-0.009078-0.042352-0.019516-0.0625-0.03125-2.97e-4 -0.010415-2.97e-4 -0.020835 0-0.03125-0.02248-0.019119-0.043381-0.04002-0.0625-0.0625-2.97e-4 -0.010415-2.97e-4 -0.020835 0-0.03125v-0.03125c-0.010832-0.009993-0.021257-0.020418-0.03125-0.03125l-19.75-23.219-0.03125-0.0625c-0.016939-0.017118-0.076351-0.043777-0.0625-0.03125-2.97e-4 -0.010415-2.97e-4 -0.020835 0-0.03125-3.1e-5 -1.3e-5 -0.019709 0.006043-0.03125 0-0.026929-0.0141-0.062399-0.031184-0.0625-0.03125-1.45e-4 -9.4e-5 -0.053027-0.023824-0.0625-0.03125-0.037892-0.029704-0.022137-0.053327-0.03125-0.0625-0.072904-0.073384-0.099169-0.085077-0.15625-0.15625s-0.12261-0.15437-0.21875-0.28125c-2.97e-4 -0.010415-2.97e-4 -0.020835 0-0.03125l-0.1875-0.28125c-0.010832-0.009993-0.021257-0.020418-0.03125-0.03125l-0.0625-0.03125c-0.011734-0.020148-0.022172-0.041024-0.03125-0.0625-0.0084-0.009787 0.007951-0.02198 0-0.03125-0.010832-0.009993-0.021257-0.020418-0.03125-0.03125-0.006072-0.007095-0.025459 0.006777-0.03125 0-0.02248-0.019119-0.043381-0.04002-0.0625-0.0625-0.010264-0.012167-0.021983-0.020146-0.03125-0.03125-0.021268-0.023803-0.015296-0.037015-0.03125-0.0625-0.004321-0.005303 0.004114-0.026147 0-0.03125-0.014312-0.017052-0.020262-0.013031-0.03125-0.03125l-0.0625-0.0625c-0.02248-0.019119-0.043381-0.04002-0.0625-0.0625-0.001969-0.00311-0.028711 0.004204-0.03125 0-2.97e-4 -0.010415-2.97e-4 -0.020835 0-0.03125-0.004183-0.007439-0.023311-0.014196-0.03125-0.03125-2.97e-4 -0.010415-2.97e-4 -0.020835 0-0.03125-2.97e-4 -0.010415-2.97e-4 -0.020835 0-0.03125l-0.03125-0.03125-14.719-17.5c-0.010415 2.97e-4 -0.020835 2.97e-4 -0.03125 0l-0.3125-0.40625h0.03125v-0.03125c-1.0589-1.2532-1.8226-2.631-2.4375-4.0625 0.019679 0.018863-0.030963-0.008466-0.0625-0.0625-0.040688-0.038744-0.073811-0.062837-0.125-0.1875-0.011734-0.020148-0.022172-0.041024-0.03125-0.0625-2.97e-4 -0.010415-2.97e-4 -0.020835 0-0.03125-0.00517-0.016007-0.005655-0.045678 0-0.03125-0.011734-0.020148-0.022172-0.041024-0.03125-0.0625-0.016517-0.029606 0.006389 0.063707-0.03125-0.03125-0.00781-0.0155-0.023725-0.015601-0.03125-0.03125-2.97e-4 -0.010415-2.97e-4 -0.020835 0-0.03125-0.002054-0.012027 0.002393-0.017191 0-0.03125 0.015236 0.052061 0.01321 0.1045-0.0625-0.09375-0.020568-0.053859-0.054402-0.11383-0.0625-0.15625-0.003784-0.011748-0.005229-0.06767 0-0.03125-0.069455-0.22109-0.10157-0.38525-0.125-0.53125-0.007453-0.051817-0.007453-0.10443 0-0.15625-2.97e-4 -0.010415-2.97e-4 -0.020835 0-0.03125-2.97e-4 -0.010415-2.97e-4 -0.020835 0-0.03125-2.97e-4 -0.010415-2.97e-4 -0.020835 0-0.03125-2.97e-4 -0.010415-2.97e-4 -0.020835 0-0.03125-0.010832-0.009993-0.021257-0.020418-0.03125-0.03125-0.003662-0.057051-0.001612-0.06463 0-0.03125-1.46e-4 -0.002304 0.005049-0.009487 0-0.03125-8.19e-4 -0.003529 0.001669-0.026883 0-0.03125-0.013706-0.051394-0.017925-0.10478-0.03125-0.15625-0.83763-3.2353-0.91916-6.6109-0.6875-9.8438-1.2e-4 -5.41e-4 5.99e-4 -0.079098 0-0.09375-0.004791-0.11722-0.004357-0.12102 0-0.1875 0.001089-0.016619-0.001386-0.042921 0-0.0625-0.001187-0.020816-0.001187-0.041684 0-0.0625-0.013215-0.030247-0.023674-0.061624-0.03125-0.09375 0 0 0.022819-0.05259 0.03125-0.09375-3.77e-4 0.015041-8.2e-4 0.004601 0-0.03125 0.10902-4.7742-2.2011-8.8549-5.875-11.969 0.008236 0.0044468-0.043008-0.014353-0.0625-0.03125-0.018814-0.010863-0.034073-0.0089109-0.0625-0.03125-0.017494-0.013747-0.011967-0.012449-0.03125-0.03125-2.6421-2.0804-5.7223-3.0947-9-3.25z" fill="none" opacity=".6" stroke="url(#d)" stroke-linecap="round" stroke-linejoin="round" stroke-width="2"/>
 <rect transform="matrix(.65025 .75972 -.75972 .65025 0 0)" x="52.704" y="-12.987" width="73.01" height="8.533" rx="3.5" fill="url(#t)" stroke-dashoffset="30" stroke-width="2.2"/>
 <path transform="matrix(.65025 .75972 -.75972 .65025 0 0)" d="m56.219-11.125c-0.92774 0-1.625 0.69726-1.625 1.625v1.5312c0 0.92774 0.69726 1.625 1.625 1.625h66c0.92774 0 1.625-0.69726 1.625-1.625v-1.5312c0-0.92774-0.69726-1.625-1.625-1.625h-66z" fill="url(#s)" stroke-dashoffset="30" stroke-width="2.2"/>
 <path transform="matrix(.73543 -.6776 .71573 .69838 0 0)" d="m-9.0163 84.509l18.005-0.85673-0.64099 12.384-18.309 0.14017 0.94485-11.667z" filter="url(#r)" stroke-dashoffset="30" stroke-width="2.2"/>
 <path d="m82.92 35.75l-29.45 29.45 8.83 8.83 29.45-29.44-8.83-8.84z" fill="#bbb"/>
 <path d="m88.93 41.76l-29.45 29.44 2.82 2.83 29.45-29.44-2.82-2.83z" fill="url(#c)" opacity=".5"/>
 <path d="m82.906 38.062l-27.125 27.125 6.5312 6.5312 27.125-27.125-6.5312-6.5312z" fill="url(#n)"/>
 <path d="m56.43 62.25c-1.39-1.39-4.48-1.36-5.9 0l-41.03 39.38c-3.74 3.59-0.82 6.64 0.78 8.25l7.36 7.36c1.61 1.6 5.86 3.76 8.88 0.56l38.72-40.81c1.35-1.42 1.36-4.47 0-5.87 0 0 0.01-0.02 0-0.02l-8.81-8.85z" fill="#75511a"/>
 <path d="m88.003 14.886c2.0552 1.5633 4.5195 3.7367 10.818 9.504 5.2656 4.8213 10.184 9.387 10.975 10.164l1.4408 1.457-0.41352 2.3815c-0.29694 1.5601-0.35931 2.8176-0.13234 3.4952 1.0224 3.0519 3.8431 5.9241 5.2794 5.4305 0.4001-0.1375 0.97086-0.64736 1.3218-1.13l0.64871-0.89206 1.3192 1.1866c2.855 2.5648 5.6175 5.298 5.866 5.8116 0.21597 0.44636-0.03 0.96142-1.2515 2.9086-1.6597 2.6458-3.663 4.8536-5.7683 6.3066-1.6043 1.1071-4.2818 2.2691-5.5387 2.4276l-0.87311 0.13788-2.9438-3.141-2.9735-3.1626 0.59468-0.56768c1.6357-1.5075 1.7052-3.9 0.14039-5.9442-1.7295-2.2592-3.5493-3.0684-5.4631-2.4273-1.1309 0.37885-3.3138 2.1187-4.2087 3.3493-0.9122 1.2543-1.4946 1.0079-5.3469-2.0245l-3.1763-2.4463c-12.375-11.532-0.030014 0.10324-12.562-11.545-0.019755-0.12533-1.1142-1.3388-2.4302-2.722s-2.3892-2.6288-2.4086-2.7517c-0.019477-0.12298 0.70964-0.89004 1.6002-1.7003 1.8664-1.6985 3.6868-4.0893 4.2492-5.5929 1.2034-3.2177-1.1445-7.2937-4.974-8.6634-4.6262-1.6547-9.364-0.94368-18.638 2.8118-2.4456 0.99035-1.9027-0.23535 1.1109-2.4653 6.7685-5.0084 14.503-7.0666 21.866-5.8745 3.3069 0.53546 6.2537 1.7746 9.8206 4.1869 0.72138 0.48787 1.3666 0.97102 2.0517 1.4921z" fill="#323232"/>
 <path d="m70.656 10.781c-2.7684 0.15365-5.5462 0.78059-8.2812 1.875 3.878-0.78938 7.0441-0.72467 10.031 0.34375 4.7009 1.6814 7.7903 6.6097 6.125 11.062-0.79752 2.1324-2.686 4.4342-4.75 6.3125-0.15902 0.14469-0.26184 0.239-0.40625 0.375 0.37768 0.42436 0.77652 0.87575 1.2812 1.4062 0.66606 0.70006 1.2885 1.3627 1.75 1.875 0.23073 0.25614 0.40619 0.46776 0.5625 0.65625 0.024649 0.029724 0.039303 0.065109 0.0625 0.09375 0.018507 0.017201 0.012852 0.01415 0.03125 0.03125 3.0948 2.8765 4.6543 4.3473 5.4375 5.0625 0.36457 0.33292 0.54416 0.4924 0.625 0.5625 0.004005 0.002769 0.027403-0.002586 0.03125 0 0.003885 0.003354 0.028015 0.028484 0.03125 0.03125 0.11558 0.080949 0.15764 0.13491 0.21875 0.1875 0.14093 0.12129 0.3558 0.29457 0.75 0.65625 0.78839 0.72337 2.3426 2.1472 5.4375 5.0312l3.0312 2.3438c0.010416-8.7e-5 0.020834-8.7e-5 0.03125 0 1.7296 1.3615 2.6193 1.9356 2.9688 2.125 0.59668-0.74358 1.3025-1.4358 2.0938-2.0625 0.89834-0.71149 1.7167-1.3414 2.75-1.6875 1.341-0.44925 2.8292-0.38486 4.125 0.1875s2.3848 1.5816 3.375 2.875c1.7692 2.3112 1.8719 5.3768 0.28125 7.5625l1.8438 1.9688 2.2812 2.4375c0.47581-0.068624 3.3486-1.2226 4.6562-2.125 1.835-1.2664 3.7338-3.3145 5.2812-5.7812 0.48081-0.76647 0.65869-1.1137 0.8125-1.4062-0.30707-0.33352-0.75441-0.79175-1.2812-1.3125-1.0051-0.99348-2.3174-2.2607-3.6562-3.4688-0.37975 0.42348-0.83252 0.79016-1.625 1.0625-1.0626 0.3652-1.9796 0.067688-2.7188-0.3125s-1.3901-0.90537-2-1.5312c-1.2197-1.2518-2.3184-2.9018-2.9375-4.75-0.4716-1.4078-0.26018-2.7109 0.0625-4.4062l0.25-1.4062-0.75-0.75c-0.65899-0.64683-5.6494-5.343-10.906-10.156-6.2923-5.7613-8.7235-7.9124-10.688-9.4062-0.64938-0.49389-1.2632-0.92907-1.9688-1.4062-3.4191-2.3123-6.0627-3.3842-9.0938-3.875-1.7222-0.27886-3.4364-0.3767-5.1562-0.28125z" fill="#474747"/>
 <path d="m53.5 63.5c-0.66092 0.002206-1.29 0.26363-1.4062 0.375l-41.031 39.375c-1.4253 1.3682-1.2686 1.807-1.0312 2.5312 0.23731 0.72428 1.0933 1.7134 1.875 2.5l7.3125 7.375c0.45497 0.45214 1.6823 1.2103 2.7812 1.4375s1.9072 0.18171 2.875-0.84375l38.719-40.812c0.11686-0.12292 0.40551-0.71796 0.40625-1.375s-0.2719-1.2376-0.375-1.3438c-0.056359-0.069766-0.10853-0.14281-0.15625-0.21875l-0.125-0.15625-8.5-8.5c-0.095525-0.095525-0.68286-0.34596-1.3438-0.34375z" fill="url(#o)"/>
 <path d="m72.188 10.469l-0.03125 0.03125c-4.7809 0.35784-11.14 2.2001-9.5584 2.1862 0.33124-0.002903 8.2656-0.33224 10.062 0.65754 4.8841 2.019 7.314 6.7591 5.4963 11.014-0.71089 1.9008-2.4097 3.5673-4.3125 5.3613h-0.03125v0.03125c-0.52644 0.56213-0.52644 1.4691 0 2.0312 0.12568 0.13845 0.27701 0.35619 0.5625 0.65625 0.66042 0.69413 1.2555 1.3295 1.7188 1.8438 0.16385 0.18189 0.29343 0.35074 0.4375 0.53125 2.4e-5 4.2e-5 0.023955 0.020572 0.03125 0.03125-1e-4 -1.73e-4 0.024174 0.021066 0.03125 0.03125s0.020484 0.015901 0.03125 0.03125c0.006229 0.008832-0.005437 0.023723 0 0.03125 0.009787 0.013548 0.026784 0.02609 0.03125 0.03125 0.009578 0.013066 0.026891 0.026285 0.03125 0.03125 0.01986 0.022617 0.023611 0.023559 0.03125 0.03125 0.012402 0.011745 0.031001 0.031019 0.03125 0.03125 0.020195 0.022456 0.019851 0.0525 0.03125 0.0625 0.031462 0.027603 0.041996 0.047835 0.0625 0.0625 0.009419 0.008756 0.021859-0.00873 0.03125 0 3.0037 2.7923 4.5673 4.2909 5.3438 5 0.2462 0.22483 0.34773 0.29521 0.46875 0.40625 0.0233 0.032703 0.062446 0.093703 0.0625 0.09375 0.006124 0.005217 0.025045-0.005114 0.03125 0 0.033093 0.027276 0.058459 0.069478 0.09375 0.09375l0.0625 0.03125c0.036355 0.022654 0.055505 0.074305 0.09375 0.09375l0.125 0.15625h0.09375c0.14851 0.12509 0.30013 0.26443 0.625 0.5625 0.77393 0.71009 2.3462 2.1432 5.3125 4.9062 0.027552 0.025665 0.034702 0.005352 0.0625 0.03125 0.003649 0.003696-0.003575 0.027772 0 0.03125 0.013108 0.012751 0.037013 0.007499 0.0625 0.03125 0.016063 0.016063 0.01446 0.04719 0.03125 0.0625l0.03125 0.03125h0.03125c5.0723 3.8231 0.23246 0.026138 5.3125 3.9688l0.03125 0.03125c0.59755 0.3421 1.3807 0.22832 1.8438-0.28125 0.48739-0.52126 0.93908-1.005 1.4062-1.375 0.89424-0.70824 1.6193-1.2673 2.5938-1.5938 1.2518-0.41936 2.6514-0.37042 3.8438 0.15625 1.2211 0.53938 2.2551 1.4599 3.2188 2.7188 1.4905 1.947 1.6304 4.4864 0.5625 6.4688l-0.03125 0.03125v0.03125c-0.24731 0.55082-0.13966 1.1921 0.28125 1.625l1.3438 1.4375 1.75 1.875 0.0625 0.0625 0.03125-0.03125c0.97459 0.52796 1.8936 0.25262 2.9062-0.125 0.95153-0.4144 1.988-0.90199 2.7188-1.4062 1.9082-1.3168 3.8043-3.4024 5.375-5.9062 0.23861-0.38039 0.30861-0.51332 0.40625-0.6875 0.00525-0.009367 0.02586-0.021675 0.03125-0.03125h-0.03125c0.3466-0.57291 0.28317-1.3017-0.1875-1.7812-0.24392-0.25136-0.45711-0.4605-0.75-0.75-0.87073-0.86068-1.9843-1.9165-3.0938-2.9375h-0.03125c-0.51048-0.44813-1.2578-0.48582-1.8125-0.09375h-0.03125c-0.49645 0.36036-0.51956 0.4628-0.71875 0.53125-0.90016 0.30936-1.749 0.05682-2.4062-0.28125-0.69386-0.35687-1.2817-0.82866-1.875-1.4375-1.1808-1.2118-2.2459-2.809-2.8438-4.5938-0.44199-1.3194-0.28746-2.513 0.03125-4.1875h0.03125l0.15625-0.875c0.10607-0.48466-0.06014-0.95703-0.40625-1.3125v-0.03125l-0.34375-0.34375h-0.03125c-0.7116-0.69848-5.6481-5.3418-10.906-10.156-6.2942-5.763-8.7657-7.8969-10.75-9.4062-0.62778-0.47745-1.2007-0.97044-1.9375-1.4688-3.4543-2.3361-6.2089-3.4088-9.2812-3.9062-1.1951-0.19352-2.2827-0.16672-3.2812-0.1875-0.031979-0.004199-0.061616 0.0021-0.09375 0-0.096402-0.006299-0.18531-0.012598-0.28125 0h-0.03125zm2.7188 2.1562c0.21364 0.020682 0.44486-0.002977 0.65625 0.03125 2.8204 0.45667 5.18 1.3696 8.4688 3.5938 0.66835 0.452 1.2307 0.85372 1.875 1.3438 1.8819 1.4314 4.2753 3.5871 10.562 9.3438 5.2482 4.8053 10.377 9.5745 10.906 10.094l0.125 0.125-0.125 0.625c-0.32861 1.7265-0.54419 3.3765 0.0625 5.1875 0.70725 2.1112 1.9062 3.9326 3.2812 5.3438 0.69234 0.71053 1.4465 1.335 2.375 1.8125 0.92722 0.47689 2.3803 0.95215 3.9688 0.40625 0.43722-0.15025 0.6569-0.36292 0.90625-0.5625 1.0083 0.92869 2.0277 1.8802 2.7812 2.625 0.17459 0.17257 0.27819 0.27814 0.40625 0.40625-0.05187 0.089837-0.0655 0.14926-0.1875 0.34375-1.4497 2.311-3.2206 4.2451-4.8125 5.3438-0.45471 0.31379-1.5053 0.82639-2.4062 1.2188-0.32856 0.14309-0.63408 0.2365-0.9375 0.34375l-1.5625-1.6875-1.125-1.2188c1.2166-2.6067 0.95852-5.7515-0.90625-8.1875-1.0905-1.4245-2.3484-2.628-3.9688-3.3438-1.6738-0.73932-3.5673-0.79293-5.2812-0.21875-1.3329 0.44651-2.3071 1.1842-3.2188 1.9062-0.48929 0.38752-0.89785 0.81588-1.3125 1.25l-4.6875-3.5312c-0.010758-0.011797-0.019453-0.020492-0.03125-0.03125l-0.03125-0.03125h-0.03125v-0.03125h-0.03125c-3.0253-2.8186-4.5978-4.2869-5.375-5-0.2515-0.23076-0.33633-0.2949-0.46875-0.40625h0.09375c-1.7818-1.4905-4.0449-3.577-6.6562-6v-0.03125c-0.003652-0.002528-0.02578 0.003787-0.03125 0-0.009117-0.006312-0.018121-0.02216-0.03125-0.03125-0.019772-0.022844-0.023058-0.02284-0.03125-0.03125-0.003392-0.004238 0.003493-0.026858 0-0.03125-0.003851-0.00374-0.029513 0.001645-0.03125 0-0.11881-0.15006-0.25862-0.35704-0.5-0.625-0.48722-0.54087-1.1158-1.2069-1.7812-1.9062-0.080464-0.084571-0.17565-0.19046-0.25-0.28125 1.8814-1.8266 3.6246-3.8991 4.4688-6.1562 1.7562-4.6958-0.88755-9.4974-5.125-12zm1.5312 21.562c-0.008975 0.051145 0.039373 0.30587 0.15625 0.59375h-0.03125c-0.037485-0.093264-0.093804-0.219-0.09375-0.21875 7.6e-5 3.58e-4 -0.031258-0.18795-0.03125-0.1875 1.6e-5 9.02e-4 -0.004129-0.16006 0-0.1875zm8.125 5.625c0.013013 0.048417 0.031282 0.093968 0.03125 0.09375-1.04e-4 -7.17e-4 -0.001991 0.090248 0 0.15625 0.001425-0.053055-0.031007-0.2489-0.03125-0.25z" fill="url(#m)" stroke-miterlimit="1.3" stroke-width="2"/>
 <path d="m53.5 64.344c-0.48612 0.001622-0.92044 0.25963-0.8125 0.15625l-41.031 39.375c-1.2574 1.207-0.9334 1.1919-0.78125 1.6562s0.85021 1.3454 1.625 2.125l7.3438 7.375c0.32277 0.32077 1.4521 1.0657 2.3438 1.25s1.2995 0.18348 2.0625-0.625l38.719-40.812c-0.093934 0.098804 0.15571-0.29764 0.15625-0.78125s-0.23978-0.86816-0.125-0.75c-0.032286-0.040879-0.063546-0.082559-0.09375-0.125l-0.09375-0.125-8.5938-8.5938c0.13088 0.13088-0.23266-0.12662-0.71875-0.125z" fill="none" stroke="url(#p)" stroke-width="2.2"/>
</svg>
