<?xml version='1.0' encoding='utf-8'?>
<svg xmlns="http://www.w3.org/2000/svg" id="Layer_1" data-name="Layer 1" viewBox="0 0 692.24 562.33"><defs><style>.cls-1{fill:#0063f9;}</style></defs><path class="cls-1" d="M852.07,660.33v-376H787.79c27.79-48.16,55.05-95.38,82.71-143.3l82.57,143H887.65V689c0,6.65,0,6.66-6.78,6.66H372.79a37.51,37.51,0,0,1,1.69-3.86c5.41-9,11-17.85,16.21-27,2-3.56,4.41-4.59,8.35-4.59q133.74.16,267.47.08H852.07Z" transform="translate(-260.83 -133.33)"/><path class="cls-1" d="M343.5,688.25,260.83,545h64.52V140.17c0-6.83,0-6.84,6.61-6.84H834.45l-9.13,15.1c-3.45,5.7-6.71,11.52-10.46,17-1.07,1.58-3.47,2.44-5.44,3.14-1.33.47-3,.09-4.47.09H361.08v376h65.27C398.52,592.93,371.21,640.25,343.5,688.25Z" transform="translate(-260.83 -133.33)"/></svg>