<?xml version="1.0" encoding="UTF-8"?>
<svg viewBox="0 0 588.32 650.32" xmlns="http://www.w3.org/2000/svg">
 <defs>
  <filter id="d">
   <feGaussianBlur in="SourceGraphic" stdDeviation="0.9"/>
  </filter>
  <linearGradient id="c" x1=".94948" x2="-6e-6" y1=".49367" y2=".49998">
   <stop stop-color="#888" offset="0"/>
   <stop stop-color="#333" offset="1"/>
  </linearGradient>
 </defs>
 <rect transform="matrix(1.5281 0 0 1.5281 53.876 -43.819)" x="2.1474" y="184.7" width="311.08" height="213.36" fill="#cccccf"/>
 <rect transform="matrix(1.5812 0 0 1.5281 53.839 -43.819)" x="2.0119" y="199.41" width="298.05" height="198.7" fill="#bfbfbf" stroke-width="48"/>
 <rect transform="matrix(1.5281 0 0 1.5281 53.876 -43.819)" x="59.036" y="260.51" width="65.962" height="129.48" fill="#7f7f7f" filter="url(#d)" stroke-width="0"/>
 <rect transform="matrix(1.5281 0 0 1.5281 53.876 -43.819)" x="147.24" y="258.77" width="129.5" height="62.391" fill="url(#c)" opacity=".75"/>
 <path d="m60.15 199.96v84.334c0 14.999 12.078 27.077 27.077 27.077h10.267c12.362 0 22.759-8.2018 26.026-19.484 3.2708 11.276 13.573 19.484 25.931 19.484h10.267c12.358 0 22.708-8.2077 25.978-19.484 3.267 11.282 13.617 19.484 25.978 19.484h10.267c11.661 0 21.531-7.3231 25.358-17.621 3.8223 10.306 13.69 17.621 25.358 17.621h10.267c11.06 0 20.525-6.5822 24.737-16.046 4.212 9.4633 13.677 16.046 24.737 16.046h10.267c10.087 0 18.836-5.4701 23.495-13.61 4.6604 8.137 13.41 13.61 23.495 13.61h10.267c9.25 0 17.373-4.6124 22.254-11.652 4.8821 7.0266 12.966 11.652 22.206 11.652h10.267c8.1531 0 15.435-3.5974 20.391-9.2643 4.956 5.667 12.238 9.2643 20.391 9.2643h10.267c14.999 0 27.077-12.078 27.077-27.077v-84.334h-472.62z" fill="#7f7f7f"/>
 <g transform="matrix(1.5281 0 0 1.1956 53.876 75.824)" fill="#ff7f00">
  <path d="m306.44 10.734v151.47c0 9.815 7.9038 17.719 17.719 17.719h7.6875c9.815 0 17.719-7.9038 17.719-17.719v-9.8125l-43.125-141.66z"/>
  <path d="m52.819 7.7647v154.44c0 9.815 7.9038 17.719 17.719 17.719h7.6562c9.8149 0 17.719-7.9038 17.719-17.719v-154.44h-43.094z"/>
  <path d="m10.319 7.7647v154.44c0 9.815 7.9038 17.719 17.719 17.719h7.6875c9.8149 0 17.719-7.9038 17.719-17.719v-154.44h-43.125z"/>
  <path d="m95.288 7.7647v154.44c0 9.815 7.9038 17.719 17.719 17.719h7.6875c9.8149 0 17.719-7.9038 17.719-17.719v-154.44h-43.125z"/>
  <path d="m137.16 7.7647v154.44c0 9.815 7.9038 17.719 17.719 17.719h7.6562c9.815 0 17.719-7.9038 17.719-17.719v-154.44h-43.094z"/>
  <path d="m180.26 7.7647v154.44c0 9.815 7.9038 17.719 17.719 17.719h7.6875c9.815 0 17.719-7.9038 17.719-17.719v-154.44h-43.125z"/>
  <path d="m221.85 7.7647v154.44c0 9.815 7.9038 17.719 17.719 17.719h7.6875c9.8149 0 17.719-7.9038 17.719-17.719v-154.44h-43.125z"/>
  <path d="m264.6 7.7647v154.44c0 9.815 7.9038 17.719 17.719 17.719h7.6875c9.815 0 17.688-7.9038 17.688-17.719v-154.44h-43.094z"/>
  <path d="m9.1943 7.7647l-41.969 136.12v18.312c0 9.815 7.9038 17.719 17.719 17.719h7.6562c9.8149 0 17.719-7.9038 17.719-17.719v-154.44h-1.125z"/>
 </g>
 <rect transform="matrix(1.5281 0 0 1.5281 53.876 -43.819)" x="7.6334" y="63.804" width="300.54" height="19.544" fill="#7f7f7f"/>
 <rect x="-240.77" y="453.47" width="514.97" height="0" fill="#bfbfbf" stroke-width="48"/>
</svg>
