<?xml version='1.0' encoding='utf-8'?>
<svg xmlns="http://www.w3.org/2000/svg" enable-background="new 0 0 256 256" version="1.1" viewBox="0 0 256 256">
	<rect x="196" y="111" width="12" height="4"/>
	<rect x="48" y="111" width="12" height="4"/>
	<rect x="126" y="181.39" width="4" height="11.61"/>
	<rect x="126" y="33" width="4" height="12.39"/>
	<rect transform="matrix(.7071 .7071 -.7071 .7071 169.82 -79.128)" x="174.56" y="163.42" width="11.724" height="4"/>
	<rect transform="matrix(.7071 .7071 -.7071 .7071 65.166 -35.78)" x="69.63" y="58.775" width="12.29" height="4"/>
	<rect transform="matrix(.7071 .7071 -.7071 .7071 139.11 -4.9876)" x="73.575" y="159.56" width="4" height="11.724"/>
	<rect transform="matrix(.7071 .7071 -.7071 .7071 95.761 -109.64)" x="178.22" y="54.63" width="4" height="12.29"/>
		<circle cx="128" cy="113.39" r="60" fill="#EDC10C"/>
		<path d="m128 175.39c-34.187 0-62-27.813-62-62s27.813-62 62-62 62 27.813 62 62-27.813 62-62 62zm0-120c-31.981 0-58 26.019-58 58s26.019 58 58 58 58-26.019 58-58-26.019-58-58-58z"/>
		<path d="M145.98,203h-34.044c-5.534,0-9.936-4.84-9.936-10.373V168h54v24.627C156,198.16,151.514,203,145.98,203z" fill="#BCBCBC"/>
		<path d="M145.98,205h-34.044c-6.471,0-11.937-5.666-11.937-12.373V166h58v26.627C158,199.334,152.496,205,145.98,205z M104,170    v22.627c0,4.539,3.635,8.373,7.937,8.373h34.044c4.347,0,8.02-3.834,8.02-8.373V170H104z"/>
	<path d="m141 203c0 3.866-5.82 7-13 7s-13-3.134-13-7" fill="#191919"/>
	<path d="m128 212c-8.411 0-15-3.953-15-9h4c0 2.36 4.704 5 11 5s11-2.64 11-5h4c0 5.047-6.589 9-15 9z"/>
</svg>