<?xml version="1.0" encoding="UTF-8"?>
<svg viewBox="0 0 54.663548 54.663548" xmlns="http://www.w3.org/2000/svg">
 <defs>
  <linearGradient id="d" x1="1890.1" x2="1961.2" y1="1155.8" y2="1093.7" gradientUnits="userSpaceOnUse">
   <stop stop-color="#9e2323" offset="0"/>
   <stop stop-color="#9e2323" stop-opacity="0" offset="1"/>
  </linearGradient>
  <linearGradient id="c" x1="1805" x2="1879.3" y1="1220.4" y2="1158.3" gradientUnits="userSpaceOnUse">
   <stop stop-color="#731a1a" offset="0"/>
   <stop stop-color="#881e1e" stop-opacity=".498" offset=".5"/>
   <stop stop-color="#9e2323" stop-opacity="0" offset="1"/>
  </linearGradient>
  <linearGradient id="b" x1="1898.3" x2="1833.7" y1="1141" y2="1197.6" gradientUnits="userSpaceOnUse">
   <stop stop-color="#e68e8e" offset="0"/>
   <stop stop-color="#9e2323" stop-opacity="0" offset="1"/>
  </linearGradient>
  <linearGradient id="a" x1="1922.2" x2="1826.6" y1="1142.4" y2="1213.4" gradientUnits="userSpaceOnUse">
   <stop stop-color="#e8e8e8" offset="0"/>
   <stop stop-color="#cdcdcd" offset="1"/>
  </linearGradient>
 </defs>
 <g transform="translate(-45.868 -45.101)">
  <path transform="matrix(.37033 0 0 .37033 -620.29 -363.38)" d="m1946.4 1176.8c0 40.761-33.043 73.804-73.804 73.804s-73.804-33.043-73.804-73.804 33.043-73.804 73.804-73.804 73.804 33.043 73.804 73.804z" fill="url(#d)"/>
  <path transform="matrix(.35807 0 0 .35807 -597.33 -348.95)" d="m1946.4 1176.8c0 40.761-33.043 73.804-73.804 73.804s-73.804-33.043-73.804-73.804 33.043-73.804 73.804-73.804 73.804 33.043 73.804 73.804z" fill="url(#c)"/>
  <path transform="matrix(.2164 0 0 .2164 -332.04 -182.23)" d="m1946.4 1176.8c0 40.761-33.043 73.804-73.804 73.804s-73.804-33.043-73.804-73.804 33.043-73.804 73.804-73.804 73.804 33.043 73.804 73.804z" fill="url(#b)"/>
  <path transform="matrix(.20468 0 0 .20468 -310.09 -168.44)" d="m1946.4 1176.8c0 40.761-33.043 73.804-73.804 73.804s-73.804-33.043-73.804-73.804 33.043-73.804 73.804-73.804 73.804 33.043 73.804 73.804z" fill="#9e2323"/>
  <g transform="matrix(.37033 0 0 .37033 -621.09 -363.93)" fill="url(#a)">
   <path d="m1836.9 1146.2c5.5558-5.1974 11.75-9.6886 18.568-12.694 5.7368-2.5385 11.943-4.0186 18.172-4.2078 6.3535-0.2316 12.69 0.8984 18.834 2.9425l-0.9609 2.9321c6.0533-0.019 12.502 0.8659 18.869 2.4277-4.3196-4.981-9.2979-9.7474-15.143-13.798l-0.8007 2.4434c-6.7336-2.1882-13.796-3.4053-21.007-3.2046-7.0821 0.2425-14.062 1.9161-20.494 4.7854-7.596 3.4035-14.354 8.2918-20.268 13.885z"/>
   <path d="m1923.6 1164.5c1.2425 7.5059 1.5435 15.15 0.2611 22.491-1.0702 6.1813-3.2814 12.166-6.5792 17.454-3.3319 5.4147-7.7872 10.06-12.896 14.038l-1.9066-2.4261c-3.3421 5.047-7.6555 9.9216-12.487 14.353 6.5405-0.8308 13.268-2.329 19.88-4.9456l-1.5889-2.0216c5.556-4.3886 10.486-9.5897 14.32-15.701 3.7268-6.0271 6.2062-12.763 7.3867-19.706 1.3818-8.2081 1.0636-16.543-0.3101-24.566z"/>
   <path d="m1864.7 1227.9c-7.209-2.4313-14.098-5.7588-19.975-10.341-4.9529-3.85-9.1963-8.6148-12.313-14.011-3.2132-5.4859-5.2197-11.602-6.3293-17.98l3.0376-0.5426c-2.884-5.3221-5.1591-11.42-6.7995-17.768-2.3409 6.1635-4.1805 12.806-4.9789 19.872l2.5311-0.4522c1.2623 6.9667 3.5356 13.763 7.1279 20.019 3.5682 6.1224 8.3482 11.477 13.922 15.782 6.5954 5.0777 14.102 8.7144 21.829 11.273z"/>
  </g>
 </g>
</svg>
