<?xml version="1.0" encoding="UTF-8"?>
<svg width="114.78" height="114.78" viewBox="0 0 114.78307 106.45454" xmlns="http://www.w3.org/2000/svg" xmlns:xlink="http://www.w3.org/1999/xlink">
 <defs>
  <linearGradient id="a">
   <stop stop-color="#fff" offset="0"/>
   <stop stop-color="#fff" stop-opacity="0" offset="1"/>
  </linearGradient>
  <linearGradient id="b">
   <stop stop-opacity=".67843" offset="0"/>
   <stop stop-opacity=".32941" offset=".57"/>
   <stop stop-opacity="0" offset="1"/>
  </linearGradient>
  <linearGradient id="k" x1="36.793" x2="37.082" y1="112.01" y2="154.14" gradientTransform="matrix(1.198 0 0 .83473 -20.705 -21.238)" gradientUnits="userSpaceOnUse">
   <stop stop-color="#fff" stop-opacity="0" offset="0"/>
   <stop stop-color="#fff" offset="1"/>
  </linearGradient>
  <linearGradient id="j" x1="85.393" x2="52.037" y1="106.61" y2="64.024" gradientTransform="matrix(.94097 0 0 1.0627 -20.705 -21.238)" gradientUnits="userSpaceOnUse">
   <stop stop-color="#4f4f4f" offset="0"/>
   <stop stop-color="#bebebe" offset=".27444"/>
   <stop stop-color="#fff" offset="1"/>
  </linearGradient>
  <linearGradient id="i" x1="110.96" x2="46.826" y1="60.308" y2="64.503" gradientUnits="userSpaceOnUse">
   <stop stop-color="#1f1f1f" stop-opacity=".55372" offset="0"/>
   <stop stop-opacity="0" offset="1"/>
  </linearGradient>
  <linearGradient id="m" x2="0" y1="137.48" y2="66.746" gradientUnits="userSpaceOnUse" xlink:href="#a"/>
  <linearGradient id="n" x1="43.407" x2="38.986" y1="-53.417" y2="40.049" gradientTransform="matrix(.70535 0 0 .4745 21.904 9.9288)" gradientUnits="userSpaceOnUse" xlink:href="#a"/>
  <linearGradient id="g" x1="105.81" x2="82.344" y1="25.611" y2="46.947" gradientTransform="matrix(.93037 0 0 .75717 -10.609 -19.108)" gradientUnits="userSpaceOnUse" xlink:href="#a"/>
  <linearGradient id="f" x1="20.784" x2="63.013" y1="161.48" y2="114.75" gradientTransform="matrix(.89749 0 0 .7849 -10.609 -19.108)" gradientUnits="userSpaceOnUse" xlink:href="#a"/>
  <linearGradient id="l" x1="-82.432" x2="-126.92" y1="484.2" y2="89.6" gradientTransform="scale(.83117 1.2031)" gradientUnits="userSpaceOnUse" xlink:href="#b"/>
  <linearGradient id="h" x1="-82.573" x2="-127.14" y1="483.37" y2="89.447" gradientTransform="scale(.82975 1.2052)" gradientUnits="userSpaceOnUse" xlink:href="#b"/>
  <linearGradient id="e" x1="-82.742" x2="-127.4" y1="482.38" y2="89.263" gradientTransform="scale(.82806 1.2076)" gradientUnits="userSpaceOnUse" xlink:href="#b"/>
  <radialGradient id="d" cx="57.836" cy="55.639" r="56.671" fx="61.614" fy="12.708" gradientUnits="userSpaceOnUse">
   <stop stop-color="#e3f9ff" offset="0"/>
   <stop stop-color="#73bee7" offset=".36195"/>
   <stop stop-color="#438ec5" offset=".62535"/>
   <stop stop-color="#477daf" offset=".72607"/>
   <stop stop-color="#020407" offset="1"/>
  </radialGradient>
  <radialGradient id="c" cx="79.896" cy="77.945" r="68.379" fx="81.236" fy="122.45" gradientTransform="matrix(.83931 0 0 .41234 -9.666 41.822)" gradientUnits="userSpaceOnUse" xlink:href="#b"/>
 </defs>
 <path d="m114.78 73.961a57.392 28.196 0 1 0 -114.78 0 57.392 28.196 0 0 0 114.78 0z" fill="url(#c)" fill-rule="evenodd"/>
 <path d="m105.92 48.77a48.77 48.77 0 1 0 -97.54 0 48.77 48.77 0 0 0 97.54 0z" fill="url(#d)" fill-rule="evenodd"/>
 <path d="m65.757 79.122c-6.4283-0.74718-6.4922-11.626-0.10559-12.507 4.0127 2.2579 7.74-7.2699 9.7874-3.4686-1.6911 7.2018 7.4967 5.5706 9.2514 0.03889 2.6091-4.4637 1.3018 3.8558 2.3024 5.6261 2.3351 5.7348-4.8932 13.749-10.222 8.8997-3.8111-3.3861-7.308 0.21372-11.013 1.4111zm13.447 3.9606c0.64438 2.4903 1.9551 2.7142 2.8106 0.08873 0.85555-2.4871-2.3588-2.0256-2.8106-0.08873zm-48.666-60.31c-5.3104 5.2619-6.8802 12.857-8.646 19.837 1.3116 4.9254 5.2688 9.943 0.71102 14.442-2.9139 6.3323-12.293 2.348-9.9558-4.092-0.11839-7.6288-1.0524-15.709 2.6136-22.732 2.0082-4.4657 5.809-9.841 11.298-9.33 1.4485 0.32193 2.7338 1.1028 3.9795 1.8751zm11.739 17.609c-0.37674-6.1209 6.3084-5.597 4.8008-12.909-0.25684-6.2047-13.204-3.1134-9.412-10.515 3.5299-5.5317 3.109-8.3711 11.946-9.7986 8.8366-1.8188 18.291-3.9457 33.154 7.0167 14.472 10.962-12.036 2.2692-15.215 6.2923-5.1043 4.2995-2.8035 13.711-8.7572 15.685-5.1456 3.2983-4.7361 10.118-5.5952 15.463 1.0239 4.38 14.577 1.2701 8.2397 7.2791-6.4442 1.6351-10.764-4.8529-15.245-8.2752-2.2698-2.1462-3.539-4.509-3.9157-10.239zm44.61-9.0003c5.4727-0.35067 7.7183 5.9286 7.2364 10.486-2.9818 4.9715 3.5813 9.6019 6.8251 4.4935 3.497-6.1775-2.2074-13.908-7.5484-17.179-2.3619-2.0922-7.0147-1.8067-6.5131 2.2002zm-54.002 52.436c6.8748-0.10381 13.814-1.6646 20.646-0.22866 2.6655 3.5819 10.181 6.0865 10.282 9.8312-5.3063 3.7102-12.197 0.2256-17.739-1.2122-4.3998-1.3339-10.652-0.4084-12.926-5.3549-0.32031-0.96903-0.4868-2.023-0.26341-3.0354z" fill="#0e7a0c" fill-opacity=".59375" fill-rule="evenodd"/>
 <path d="m80.646 87.952c-19.043 22.869-82.387-0.29424-67.709-45.604 12.42-15.771 38.537-4.2802 67.709 45.604z" fill="url(#f)" fill-rule="evenodd"/>
 <path d="m44.796 7.2544c21.348-13.01 64.779 6.2356 58.411 42.486-8.6213 11.495-24.233-47.281-58.411-42.486z" fill="url(#g)" fill-rule="evenodd"/>
 <path d="m92.998 24.71a35.039 23.561 0 1 0 -70.078 0 35.039 23.561 0 1 0 70.078 0z" fill="url(#n)" fill-rule="evenodd"/>
 <g transform="matrix(1 0 0 .88982 156.03 -100.12)" fill-rule="evenodd">
  <path d="m-125.95 117.93-1.125 0.0625s0.38519 4.0948 3.9688 9.5 7.3476 10.117 22.844 15.125l0.8125-0.9375c-12.188-3.837-19.566-9.853-22.875-14.844s-3.625-8.9062-3.625-8.9062zm45.594 11c-3.8514 0.058-7.4051 1.4472-10.594 3.7188-4.2515 3.0287-7.8697 7.6014-10.938 12.875-2.791 4.7979-5.1012 10.22-7.0312 15.594-5.3521-1.7768-10.736-2.6621-14.125-1.6562-7.3818 2.3255-19.157 39.862-22.312 46.406-1.0882 2.607-1.2045 6.2659-0.46875 9.9062 0.9484 5.6469 4.0565 11.394 9.2812 13.188 8.9565 3.7061 21.362-0.79251 25.312-7.6875 3.9004-7.2159 20.86-41.498 19.219-48.25-0.03329-0.1137-0.1749-0.22903-0.21875-0.34375-0.01557-0.10247 0.05369-0.31393 0.03125-0.40625-1.0594-3.6177-7.5446-7.7256-14.594-10.406 1.687-5.4989 3.7662-10.993 6.4062-15.531 2.963-5.0936 6.3261-10.03 10.188-12.781 6.3886-5.6226 18.672-3.3703 16-3.875-1.3444-0.29026-4.8725-0.76933-6.1562-0.75zm8.6875 4.0625c-0.14578 5e-3 -0.13389 0.0863 0.125 0.25 1.0355 0.65494 1.3526 1.2211 1.4062 1.75s-0.18947 1.2304-0.875 2.0625-1.7934 1.7505-3.1875 2.5938c-5.5765 3.3731-16.302 5.3711-23.125 2.8125l-0.5625 0.90625c7.8808 2.9553 18.208 1.1553 24.406-2.5938 1.5495-0.93726 4.4702-3.3923 4.2188-5.6562-0.18858-1.4395-1.9689-2.1408-2.4062-2.125z" fill="url(#e)"/>
  <path d="m-127.22 117c-1.9372 1.7851 0.36895 4.8828 1.1062 6.969 3.8476 8.7873 11.971 14.997 20.993 17.802 4.9542 0.46714 2.7991 3.4708 0.90622 6.3809-2.2969 3.6741-3.5746 7.8385-5.3179 11.786-5.1536-0.97285-11.438-3.7067-16.062 0.0937-7.8836 9.8118-11.291 22.166-16.153 33.595-2.3613 6.9394-6.5912 13.951-5.0908 21.502 0.90203 6.8466 5.1226 14.13 12.43 15.455 10.487 2.6047 22.796-2.9392 26.358-13.49 6.4897-13.417 13.427-26.847 17.018-41.374 0.77007-5.2238-3.7025-8.6531-7.6968-10.971-1.7309-1.9282-6.6542-1.9304-6.4417-4.396 2.037-5.4957 3.9329-11.128 7.4198-15.914 8.4728 2.3915 17.918 1.2455 25.448-3.3013 2.8137-1.6032 5.7669-6.169 2.3025-8.5737-3.7513-2.243-2.5236 0.72917-1.5938 3.1875-5.2266 5.8908-13.929 7.0512-21.385 6.4713-5.0022 0.47839-1.5227-3.012 0.32193-4.9533 4.2264-5.0214 10.873-6.7579 17.219-6.5805 4.3032 0.26271 1.0489-3.2872-1.6726-2.4388-8.8273-1.3043-17.153 4.1991-21.822 11.372-1.945 1.8441-5.3306-1.6731-7.8493-1.9645-8.1712-4.003-16.424-10.303-18.094-19.812-0.53837-0.91033-1.368-1.1296-2.3438-0.84375z" fill="url(#h)"/>
  <path d="m-126 115.97c-4.1184 0.0388-2.9877 5.3494-1.3132 7.6009 3.8475 8.9246 11.758 15.544 20.81 18.783 3.7804 0.41326 3.1328 3.3176 1.2956 5.6334-1.8782 3.1696-3.2698 6.5064-4.5738 9.9207-2.5171 1.4301-5.6531-0.90883-8.4936-0.66426-4.0655-0.52587-8.5478 1.1926-10.113 5.2716-8.339 12.39-12.342 27.003-18.112 40.643-2.3142 7.3047-1.9436 15.905 2.7962 22.153 4.496 6.7339 13.772 7.9893 21.087 5.9751 7.7359-1.9558 13.848-8.1112 16.363-15.616 6.0984-13.352 13.308-26.558 16.155-41.024-0.10218-6.1192-6.1159-9.8687-10.977-12.352-3.4671-0.43812-2.8174-3.946-1.3843-6.0884 1.2959-3.7729 3.1364-7.2626 5.2413-10.642 8.3696 1.8276 17.432 0.92379 24.898-3.4192 3.6581-1.4367 6.6549-7.1817 3.1456-10.118-2.3518-0.8187-3.519-1.3804-4.1372-3.8379-5.7903-2.4911-12.602-0.54356-17.817 2.4949-3.663 1.9383-5.8114 5.7018-8.9328 8.1301-6.326-1.091-11.896-5.1484-16.718-9.1941-3.783-3.3689-5.8547-8.0172-7.544-12.633-0.29501-0.51198-1.1289-1.022-1.6754-1.0168zm53.188 15.25c-0.78162 2.2886 0.52701 5.3518-2.7287 6.2045-5.2849 3.765-12.207 4.1236-18.49 3.608 3.4259-6.1429 10.485-9.2133 17.317-9.359 1.3006-0.14787 2.6-0.3182 3.9014-0.45354z" fill="url(#l)"/>
 </g>
 <path d="m94.81 67.603a36.55 28.696 0 1 0 -73.099 0 36.55 28.696 0 1 0 73.099 0z" fill="url(#m)" fill-rule="evenodd"/>
 <path d="m30.509 7.4753c3.5836 5.4052 8.6781 11.529 24.174 16.537l0.7994-0.91981c-12.188-3.837-20.429-11.114-23.738-16.105l-1.2357 0.48721zm44.089 2.8693c-3.8514 0.058-7.4144 1.439-10.603 3.7106-4.2515 3.0287-7.8744 7.6035-10.942 12.877-6.1356 10.547-10.335 24.064-11.965 33.61l2.5988 1.5992c1.5866-9.2931 4.926-24.204 10.852-34.391 2.963-5.0936 6.3426-10.047 10.204-12.797 6.3886-5.6226 19.704-3.1249 17.032-3.6296-1.3444-0.29026-3.0866-1.3187-7.1767-0.97867zm6.9238 1.0929c1.1372 0.40618 0.74543 0.60176 2.0341 1.853s1.1824 2.5898 1.2361 3.1186-0.18226 1.2226-0.86779 2.0548-1.7878 1.7402-3.1819 2.5834c-5.5765 3.3731-16.303 5.3693-23.125 2.8107l-0.56999 0.92549c7.8808 2.9553 18.216 1.15 24.414-2.5991 1.5495-0.93726 4.4707-3.3916 4.2192-5.6556-0.42913-3.2035-1.9566-4.9468-4.1579-5.0913z" fill="#e7e7e7" fill-rule="evenodd"/>
 <path d="m32.108 41.486c8.3446-2.1517 28.896 5.3113 30.858 11.132 1.6414 5.8649-15.314 35.622-19.214 41.89-3.951 5.9892-16.344 9.9127-25.3 6.6935-8.3596-2.4928-11.34-13.802-8.6386-19.425 3.1557-5.6843 14.913-38.272 22.295-40.292z" fill="#fff" fill-rule="evenodd"/>
 <path d="m32.055 41.523c8.3446-2.1517 28.896 5.3113 30.858 11.132 1.6414 5.8649-15.314 35.622-19.214 41.89-3.951 5.9892-16.344 9.9127-25.3 6.6935-8.3596-2.4928-11.34-13.802-8.6386-19.425 3.1557-5.6843 14.913-38.272 22.295-40.292z" fill="url(#j)" fill-rule="evenodd"/>
 <path d="m31.891 40.8c8.3446-2.0474 28.896 5.054 30.858 10.593 1.6414 5.5807-15.314 33.896-19.214 39.86-3.951 5.699-16.344 9.4324-25.3 6.3692-8.3596-2.372-11.34-13.134-8.6386-18.483 3.1558-5.4089 14.913-36.417 22.295-38.339z" fill="url(#i)" fill-rule="evenodd"/>
 <path d="m49.378 44.364c-4.0404 5.2322-6.763 13.305-6.8981 13.662-5.0277-1.9545-12.619-4.0968-18.897-5.1336l-0.06912 0.36885c15.275 2.5229 29.591 9.1274 34.685 14.636l0.30242-0.24274c-3.0262-3.2728-8.5764-6.6851-15.664-9.4832 0.12157-0.321 2.853-8.4014 6.8597-13.59l-0.31934-0.21728z" fill-opacity=".5865" fill-rule="evenodd"/>
 <path d="m31.289 67.794c-6.4111-1.6875-19.451 11.153-21.16 16.64-1.8637 5.5023 8.5354 17.283 27.979 8.7896 9.4892-4.2229 15.174-15.401 11.843-20.486s-15.677-4.0776-18.663-4.9436z" fill="url(#k)" fill-rule="evenodd"/>
</svg>
